<?xml version="1.0" standalone="no"?>
<!DOCTYPE svg PUBLIC "-//W3C//DTD SVG 20010904//EN"
 "http://www.w3.org/TR/2001/REC-SVG-20010904/DTD/svg10.dtd">
<svg version="1.0" xmlns="http://www.w3.org/2000/svg"
 width="10000.000000pt" height="10717.000000pt" viewBox="0 0 10000.000000 10717.000000"
 preserveAspectRatio="xMidYMid meet">

<g transform="translate(0.000000,10717.000000) scale(0.100000,-0.100000)"
fill="#000000" stroke="none">
<path d="M49270 103349 c-9237 -195 -18105 -3282 -25655 -8929 -2271 -1699
-4385 -3601 -6336 -5700 -3176 -3418 -5852 -7277 -7978 -11505 -3201 -6366
-5048 -13381 -5426 -20615 -52 -1006 -70 -1722 -70 -2815 0 -1093 18 -1809 70
-2815 439 -8396 2853 -16475 7048 -23590 2505 -4249 5627 -8096 9222 -11366
6144 -5587 13527 -9361 21415 -10944 2344 -471 4719 -750 7055 -829 556 -19
619 -21 1075 -25 408 -4 425 -3 165 4 -962 28 -1829 78 -2715 155 -7320 643
-14351 3123 -20590 7261 -4677 3101 -8815 7082 -12201 11734 -3680 5055 -6400
10802 -8019 16940 -958 3632 -1525 7402 -1684 11190 -37 861 -41 1101 -41
2285 0 1184 4 1424 41 2285 350 8340 2659 16417 6726 23529 2664 4658 6029
8817 9963 12316 5518 4908 12028 8382 18985 10130 3128 786 6279 1217 9535
1304 l290 8 -265 0 c-146 -1 -420 -4 -610 -8z"/>
<path d="M54543 101293 c9 -2 23 -2 30 0 6 3 -1 5 -18 5 -16 0 -22 -2 -12 -5z"/>
<path d="M54935 101240 c381 -56 836 -131 1145 -190 118 -22 346 -61 505 -85
4761 -738 9295 -2266 13600 -4585 5202 -2802 9910 -6747 13737 -11510 1703
-2121 3217 -4375 4548 -6775 796 -1437 1543 -2962 2192 -4480 2378 -5558 3737
-11615 3978 -17720 28 -699 31 -881 37 -1775 7 -1209 -10 -1995 -67 -3085
-348 -6604 -1972 -13034 -4777 -18915 -2918 -6116 -7053 -11506 -12110 -15782
l-283 -240 0 -320 0 -320 43 34 c713 574 1057 862 1642 1373 1772 1550 3486
3304 5011 5130 3246 3887 5861 8278 7764 13035 2726 6815 3922 14245 3495
21700 -428 7459 -2463 14643 -5967 21065 -2475 4535 -5638 8613 -9348 12051
-4203 3894 -9038 6910 -14245 8884 -3279 1243 -6717 2073 -10185 2459 -335 38
-984 101 -1019 100 -14 0 123 -22 304 -49z"/>
<path d="M54075 100196 c-71 -14 -226 -55 -234 -62 -2 -2 23 -29 57 -60 76
-69 135 -180 157 -297 16 -86 20 -157 7 -157 -4 0 -133 54 -287 120 -154 66
-284 120 -290 120 -5 0 -26 -30 -45 -67 -74 -143 -200 -243 -355 -279 -38 -10
-75 -18 -82 -20 -12 -3 -63 -94 -63 -112 0 -5 29 1 65 14 36 13 109 32 162 43
92 19 158 26 508 51 164 12 234 27 331 75 87 43 182 139 234 238 19 37 38 67
42 67 3 0 123 -50 265 -111 142 -61 272 -117 290 -124 l32 -14 -5 52 c-27 270
-138 428 -356 504 -62 22 -94 26 -218 29 -93 2 -170 -1 -215 -10z"/>
<path d="M56230 99734 l0 -121 -92 -7 c-376 -29 -498 -148 -498 -488 l0 -88
39 0 c54 0 154 33 233 77 99 56 207 145 352 292 122 125 127 132 121 163 -9
44 -98 226 -130 263 l-25 30 0 -121z"/>
<path d="M41194 99171 l-119 -158 -155 -61 c-85 -34 -243 -93 -350 -131 -260
-91 -356 -132 -337 -143 34 -18 258 -30 385 -19 147 12 285 31 278 39 -3 2
-38 16 -78 29 -40 14 -77 29 -81 33 -5 4 31 10 78 14 99 8 216 36 272 64 99
51 175 153 207 279 17 63 33 213 24 213 -3 0 -59 -71 -124 -159z"/>
<path d="M41955 98735 c-71 -12 -184 -32 -250 -44 -66 -12 -173 -27 -238 -33
l-118 -12 -13 -31 c-8 -17 -25 -50 -40 -73 -29 -47 -31 -52 -15 -52 26 0 117
-54 157 -93 83 -81 129 -199 139 -354 3 -51 9 -93 13 -93 3 0 17 14 30 32 13
17 71 85 129 151 286 323 331 380 381 490 15 34 31 79 34 100 l7 37 -43 -1
c-24 0 -101 -11 -173 -24z"/>
<path d="M39075 98713 c-57 -50 -150 -99 -248 -132 -86 -29 -240 -60 -306 -62
l-36 -1 30 -8 c17 -4 65 -13 108 -19 153 -24 271 -76 355 -154 92 -88 136
-187 148 -337 l7 -80 120 0 120 0 -6 73 c-7 89 -44 207 -109 352 -87 191 -109
248 -126 326 l-17 77 -40 -35z"/>
<path d="M35915 98640 c-38 -16 -214 -86 -390 -156 -1026 -406 -2057 -864
-3090 -1373 -470 -232 -520 -262 -1440 -891 -2155 -1472 -4006 -3102 -5642
-4968 -1449 -1654 -2712 -3496 -3773 -5502 -57 -107 -160 -301 -230 -430
-1581 -2926 -2734 -6056 -3450 -9365 -456 -2108 -744 -4386 -830 -6575 -39
-1005 -48 -1609 -45 -2895 3 -1081 8 -1335 35 -2070 184 -4916 1015 -9234
2538 -13181 154 -397 184 -471 330 -799 469 -1057 1000 -2132 1495 -3030 1031
-1872 2158 -3500 3418 -4935 265 -302 418 -468 758 -823 l276 -288 8 98 c15
203 56 422 102 552 8 24 15 45 15 47 0 2 -48 57 -108 121 -491 537 -1099 1281
-1584 1938 -1332 1807 -2487 3844 -3600 6350 -382 859 -892 2304 -1267 3585
-880 3014 -1399 6290 -1566 9890 -44 955 -58 1620 -58 2750 0 2340 82 3977
288 5720 350 2962 1030 5799 2035 8495 580 1556 1243 3010 2069 4540 60 110
166 308 236 440 1194 2241 2658 4284 4404 6145 219 232 967 981 1206 1205
1312 1232 2633 2265 4362 3413 1073 711 2169 1335 3358 1909 229 111 274 137
140 83z"/>
<path d="M40270 98492 c0 -12 16 -23 53 -36 87 -31 214 -96 313 -161 52 -35
94 -57 94 -51 0 6 -13 34 -29 61 -34 59 -102 125 -160 154 -53 28 -153 51
-218 51 -44 0 -53 -3 -53 -18z"/>
<path d="M61180 98369 c-13 -22 -60 -71 -104 -109 -131 -115 -186 -207 -186
-311 0 -36 -6 -43 -102 -123 -105 -87 -207 -152 -303 -191 l-55 -22 27 -12
c45 -20 101 -70 124 -109 12 -20 32 -53 44 -72 29 -44 79 -190 100 -295 11
-52 17 -126 16 -210 0 -134 -8 -180 -74 -425 -14 -52 -28 -110 -31 -129 -5
-30 -4 -32 11 -20 69 57 172 240 288 509 37 85 114 248 173 363 l105 207 99 0
c54 0 98 4 98 8 0 23 -65 105 -107 136 -76 56 -230 95 -370 96 -29 0 -53 3
-53 8 0 4 16 18 36 31 58 40 149 146 187 219 20 37 47 106 60 152 27 92 51
255 45 307 l-3 31 -25 -39z"/>
<path d="M40987 98169 l-77 -84 77 -72 78 -72 3 80 c2 44 2 114 0 156 l-3 76
-78 -84z"/>
<path d="M57529 98169 l-54 -81 62 -62 c57 -56 66 -62 97 -58 32 4 46 18 131
123 53 66 98 125 101 133 6 15 -80 26 -207 26 l-75 0 -55 -81z"/>
<path d="M59790 98109 c1 -194 -4 -189 163 -189 l125 0 7 53 c9 66 43 142 85
190 18 21 30 40 26 44 -13 14 -149 33 -273 39 l-133 7 0 -144z"/>
<path d="M58559 98074 c-132 -165 -133 -166 -148 -143 -30 50 -168 175 -226
206 -60 31 -204 83 -232 83 -8 0 21 -26 64 -58 104 -78 199 -181 235 -256 25
-53 28 -71 27 -141 -2 -74 0 -83 29 -130 65 -101 122 -298 122 -422 l0 -44 48
39 c26 22 112 81 192 132 161 102 205 134 268 194 l42 40 0 170 0 170 48 -69
c36 -53 48 -64 50 -49 2 11 -5 43 -15 70 -16 43 -22 49 -51 52 -31 3 -32 5
-32 46 0 40 -5 47 -67 107 -56 54 -160 134 -210 162 -7 4 -63 -58 -144 -159z"/>
<path d="M37417 98105 c-14 -69 -84 -201 -140 -262 -81 -91 -85 -96 -92 -135
l-7 -38 256 0 c141 0 256 -3 256 -7 0 -4 -26 -34 -57 -67 -32 -32 -49 -56 -38
-52 11 5 81 24 155 43 110 28 139 40 158 61 32 38 100 180 108 225 l6 37 -296
0 -295 0 -3 118 c-2 92 -5 108 -11 77z"/>
<path d="M60371 98078 c-6 -29 -22 -77 -36 -105 l-24 -53 156 0 156 0 -19 23
c-71 85 -186 187 -211 187 -6 0 -15 -24 -22 -52z"/>
<path d="M59790 97787 l0 -97 48 32 49 32 -44 61 c-25 33 -47 62 -49 64 -2 2
-4 -39 -4 -92z"/>
<path d="M57223 97842 c-90 -78 -256 -151 -396 -174 l-78 -13 112 -165 c61
-91 115 -169 120 -174 5 -5 17 9 28 35 l20 44 0 -75 1 -76 113 -150 c175 -234
414 -514 438 -514 13 0 96 114 127 175 34 68 67 169 86 262 15 75 37 275 31
281 -2 2 -12 -2 -22 -9 -12 -7 -59 -105 -119 -244 -54 -128 -102 -231 -106
-228 -5 2 -8 23 -8 46 0 178 -158 443 -428 719 -49 50 -73 81 -69 92 6 16 137
123 187 153 17 9 29 22 27 28 -7 19 -32 14 -64 -13z"/>
<path d="M38873 97644 c-222 -27 -459 -90 -743 -200 -225 -86 -285 -113 -274
-124 5 -5 52 -41 104 -81 52 -39 84 -68 70 -64 -191 59 -333 58 -522 -1 -46
-14 -115 -41 -154 -58 -80 -38 -85 -45 -129 -220 -24 -96 -50 -304 -39 -315
11 -11 235 111 470 257 378 235 523 309 699 358 87 24 302 30 385 11 36 -9 66
-14 67 -13 1 1 -60 49 -137 106 -77 57 -140 107 -140 111 0 3 60 9 133 12 280
13 428 80 453 205 l7 32 -69 -1 c-38 -1 -120 -7 -181 -15z"/>
<path d="M34325 96503 c-27 -25 -97 -76 -155 -114 -236 -153 -261 -178 -282
-280 l-12 -59 -128 0 -129 0 7 -37 c16 -90 76 -309 110 -399 20 -54 65 -159
101 -233 l64 -134 115 114 114 113 108 -107 c61 -60 126 -114 148 -124 29 -12
77 -18 183 -21 l143 -4 -35 63 c-173 311 -277 706 -295 1117 l-7 150 -50 -45z"/>
<path d="M41145 95453 c-227 -18 -407 -69 -532 -149 l-53 -34 -1 -92 c0 -58
-7 -120 -19 -163 l-19 -70 34 -72 c125 -267 424 -321 635 -113 154 151 208
406 139 663 l-10 37 -67 -2 c-37 -1 -85 -3 -107 -5z"/>
<path d="M33057 95192 c-29 -32 -19 -57 53 -138 87 -95 144 -207 168 -329 l17
-85 285 285 285 285 -396 0 c-371 0 -397 -1 -412 -18z"/>
<path d="M53585 95185 c-81 -22 -145 -107 -145 -194 0 -13 -7 -47 -16 -76 -16
-51 -16 -52 8 -91 43 -69 69 -143 80 -230 l12 -85 70 -34 c131 -63 281 -92
526 -102 l156 -6 12 39 c7 21 16 73 19 114 10 144 -49 287 -176 422 -124 132
-256 213 -397 243 -82 17 -85 17 -149 0z"/>
<path d="M64754 94908 c-51 -82 -152 -203 -230 -278 -135 -129 -303 -225 -445
-254 -32 -6 -63 -16 -68 -21 -16 -17 -31 -243 -31 -457 0 -192 1 -206 24 -253
13 -27 57 -87 99 -132 85 -92 112 -137 122 -206 l7 -47 -136 0 -135 0 7 -32
c4 -18 7 -114 7 -213 0 -141 -4 -198 -19 -263 l-19 -83 -61 -31 c-214 -108
-351 -265 -410 -470 -23 -81 -46 -242 -46 -325 l0 -36 103 7 c113 7 352 34
380 42 15 5 10 11 -25 33 -87 56 -153 158 -183 283 -14 62 -32 248 -23 248 2
0 44 -9 94 -20 132 -29 263 -35 353 -16 126 27 203 86 255 196 26 56 30 78 34
176 7 183 -50 399 -168 634 -33 68 -59 125 -56 127 2 2 30 -19 61 -47 74 -67
172 -130 260 -166 69 -28 74 -29 293 -32 l222 -4 0 34 c-1 54 -33 110 -119
204 -117 128 -125 148 -129 317 -8 284 28 605 89 802 30 98 91 231 129 286 11
15 20 30 20 33 0 3 -52 6 -115 6 l-115 0 -26 -42z"/>
<path d="M63090 94422 c0 -155 2 -181 16 -186 9 -3 18 -6 20 -6 2 0 4 29 4 64
l0 64 48 6 c81 12 152 29 152 37 0 9 -148 135 -207 177 l-33 23 0 -179z"/>
<path d="M62564 94418 c-20 -9 -18 -13 35 -61 31 -28 93 -87 139 -131 l82 -81
0 105 0 105 -34 22 c-78 50 -169 67 -222 41z"/>
<path d="M62347 94155 c-9 -20 -17 -38 -17 -40 0 -3 39 -5 88 -5 l87 0 -62 40
c-34 22 -66 40 -71 40 -4 0 -16 -16 -25 -35z"/>
<path d="M62799 93825 l16 -65 3 47 c2 35 -1 51 -15 65 -19 18 -19 17 -4 -47z"/>
<path d="M56750 92658 c0 -3 12 -36 26 -74 64 -172 88 -391 55 -524 -17 -69
-69 -184 -112 -247 -70 -102 -246 -250 -396 -333 -41 -22 -41 -24 -48 -91 l-7
-69 -102 -1 c-89 -1 -95 -2 -51 -10 168 -28 294 -132 340 -282 13 -39 14 -28
14 126 l1 167 300 0 300 0 0 48 c0 83 29 230 101 512 100 391 104 521 20 635
-36 50 -117 99 -196 120 -59 16 -245 33 -245 23z"/>
<path d="M65030 91890 c-41 -5 -190 -23 -331 -41 l-256 -32 -62 -137 c-34 -76
-90 -185 -125 -243 -59 -98 -64 -112 -70 -184 -20 -226 -103 -355 -298 -468
-48 -27 -87 -53 -88 -56 0 -10 174 -97 268 -134 207 -80 423 -115 767 -124
l240 -6 3 -176 2 -176 104 5 c129 6 342 -13 440 -38 60 -15 148 -51 239 -98 4
-2 7 104 7 236 l0 239 -207 7 c-248 8 -382 20 -521 47 -265 51 -524 174 -753
356 -89 71 -209 182 -209 193 0 4 39 -6 88 -23 76 -27 101 -31 197 -31 133 -1
183 14 290 86 128 85 237 227 357 464 57 112 158 329 158 340 0 6 -159 2 -240
-6z"/>
<path d="M64255 90100 c28 -5 147 -8 265 -8 142 1 196 3 160 8 -30 5 -149 8
-265 8 -138 -1 -193 -3 -160 -8z"/>
<path d="M49530 86891 l-85 -6 140 -7 c867 -45 1878 -220 2700 -467 823 -247
1490 -537 2320 -1009 1917 -1090 3578 -2671 4881 -4647 855 -1297 1549 -2765
1999 -4227 l35 -116 343 156 c188 86 344 157 347 159 11 9 -200 604 -335 948
-348 885 -749 1698 -1240 2514 -979 1627 -2211 3031 -3629 4135 -646 503
-1278 908 -2083 1334 -1026 544 -2225 926 -3475 1107 -467 67 -965 110 -1380
120 -123 3 -275 7 -338 8 -63 2 -153 1 -200 -2z"/>
<path d="M63452 85574 c-22 -15 -22 -16 -22 -314 l0 -299 30 -16 c39 -20 43
-19 74 11 94 95 95 507 1 608 -28 30 -51 33 -83 10z"/>
<path d="M28268 84873 c-198 -157 -370 -321 -527 -502 -60 -69 -79 -96 -69
-102 23 -15 38 -10 96 30 84 57 255 161 264 161 4 0 8 -52 8 -115 0 -65 4
-115 9 -115 39 0 203 42 298 77 l42 15 -29 37 c-80 100 -90 281 -26 501 13 44
22 80 21 80 -2 0 -41 -30 -87 -67z"/>
<path d="M30101 84699 c-125 -9 -228 -31 -335 -70 -97 -35 -152 -66 -238 -136
-61 -49 -198 -123 -305 -166 l-43 -17 0 -95 0 -95 -249 0 c-138 0 -252 -4
-255 -9 -3 -5 27 -33 66 -62 40 -30 98 -77 128 -105 49 -46 62 -53 121 -63 36
-6 159 -11 272 -11 l207 0 0 125 0 125 255 0 255 0 0 170 0 170 125 0 125 0 0
125 c0 94 -3 125 -12 124 -7 -1 -60 -5 -117 -10z"/>
<path d="M26434 84628 c4 -35 11 -91 17 -125 11 -59 14 -65 59 -98 62 -46 110
-100 165 -185 28 -44 51 -70 62 -70 10 1 49 41 90 93 40 51 109 132 153 182
l80 90 -27 7 c-16 5 -95 20 -178 34 -82 14 -179 32 -215 41 -66 16 -173 64
-185 83 -3 5 -11 10 -17 10 -6 0 -8 -22 -4 -62z"/>
<path d="M27100 84376 c-123 -77 -160 -103 -258 -180 -72 -57 -70 -60 32 -71
l69 -7 -7 -52 c-8 -74 -44 -170 -125 -337 -69 -145 -121 -281 -120 -316 0 -10
55 90 121 222 l121 240 17 -95 c23 -124 61 -266 159 -587 44 -145 87 -289 96
-320 16 -56 18 -59 73 -85 82 -39 163 -107 233 -196 l62 -77 -84 -12 c-46 -7
-111 -20 -144 -30 l-60 -19 -3 -266 -2 -266 57 -23 c124 -49 179 -100 169
-158 -3 -19 -15 -44 -27 -57 l-22 -24 174 0 175 0 -8 73 c-21 202 -79 347
-175 437 -32 31 -69 63 -83 72 l-25 17 26 0 c60 2 185 44 359 121 188 84 336
130 417 130 40 0 43 1 33 20 -39 72 -214 240 -232 222 -5 -5 -16 -58 -25 -120
l-17 -112 -20 19 c-33 31 -86 125 -122 214 l-33 82 -103 3 c-119 3 -172 -8
-230 -51 -49 -35 -42 -40 -117 93 -101 178 -163 352 -183 509 -9 66 -15 87
-19 70 -4 -13 -7 204 -8 484 -1 399 -4 507 -13 506 -7 0 -65 -33 -128 -73z"/>
<path d="M23272 84004 c-126 -94 -160 -125 -134 -123 4 0 108 51 232 114 l225
114 -91 0 -90 1 -142 -106z"/>
<path d="M23534 84005 c-148 -160 -149 -145 11 -145 l135 0 -26 -52 c-90 -177
-240 -325 -466 -459 l-58 -33 7 -41 c9 -59 30 -113 64 -167 l31 -48 28 23 c15
12 61 49 101 83 41 34 162 125 269 204 107 78 220 165 252 192 l56 48 84 -36
c45 -20 101 -47 124 -60 l40 -24 56 50 c68 60 156 175 197 255 l30 60 -296 5
-297 5 164 123 164 122 -286 0 -286 0 -98 -105z"/>
<path d="M28670 83946 c0 -81 -1 -86 -22 -86 l-21 0 7 -267 c10 -431 39 -664
101 -830 29 -76 93 -189 122 -216 20 -17 20 -16 26 55 9 98 44 223 122 428 90
234 108 317 102 450 -5 116 -22 172 -82 266 -41 64 -113 144 -129 144 -26 0
-135 61 -178 100 l-48 42 0 -86z"/>
<path d="M28042 83940 c2 -16 14 -28 36 -37 41 -17 40 -6 -5 31 -35 29 -35 29
-31 6z"/>
<path d="M28160 83844 c24 -27 47 -50 50 -52 3 -1 23 15 43 36 l38 39 -68 6
c-37 3 -77 9 -88 13 -13 5 -5 -10 25 -42z"/>
<path d="M24719 83584 c-8 -10 -84 -70 -170 -134 l-156 -116 29 -35 c16 -19
46 -68 66 -108 36 -72 37 -78 36 -180 0 -90 -4 -116 -26 -173 l-26 -66 21 -6
c12 -3 34 -6 48 -6 55 0 226 -52 313 -94 50 -24 119 -65 154 -90 34 -25 66
-46 71 -46 19 0 143 168 182 245 22 44 46 114 55 155 48 235 -113 458 -447
614 -123 57 -133 60 -150 40z"/>
<path d="M31340 83535 c-100 -83 -270 -260 -352 -365 -123 -158 -269 -392
-366 -586 l-41 -81 -62 31 c-91 45 -181 48 -295 11 -46 -15 -103 -40 -127 -55
-40 -25 -45 -34 -71 -116 -16 -49 -32 -96 -36 -104 -5 -11 -34 -17 -116 -21
l-109 -6 -64 -69 c-34 -38 -100 -113 -144 -167 -45 -55 -99 -109 -122 -122
-97 -56 -218 -69 -326 -35 -73 22 -60 31 -143 -95 -64 -96 -131 -227 -221
-435 -37 -85 -68 -157 -70 -159 -2 -1 -63 -2 -135 -2 -138 2 -209 -13 -237
-49 -38 -48 -140 -234 -197 -358 l-66 -142 0 -150 0 -149 148 -3 147 -3 3
-167 2 -168 168 0 168 0 3 165 2 165 -31 0 -31 0 30 43 30 42 0 200 c1 110 1
206 1 213 0 29 85 0 157 -54 17 -13 35 -24 40 -24 9 0 123 238 123 257 0 6
-16 48 -35 92 l-34 81 77 1 c42 1 164 4 270 8 l193 6 65 150 c97 223 156 340
229 450 l65 99 -26 27 -27 28 99 132 99 133 7 -74 c4 -40 9 -75 11 -77 3 -2
28 13 58 33 74 49 140 82 232 114 93 33 184 87 250 149 53 50 73 82 85 136 7
36 8 34 57 -82 47 -111 52 -118 80 -121 30 -3 31 -1 48 67 29 110 124 288 287
536 216 330 296 494 319 661 6 38 9 69 8 70 -1 1 -36 -26 -77 -61z"/>
<path d="M33030 83554 c0 -115 -87 -301 -185 -394 -20 -19 -43 -47 -51 -62
-37 -71 -3 -211 110 -447 46 -97 93 -207 104 -246 22 -76 34 -155 23 -155 -3
0 -65 16 -136 35 -72 20 -145 40 -162 45 -18 4 -33 7 -33 5 0 -2 27 -21 61
-41 l60 -38 -26 -15 c-49 -29 -196 -350 -211 -459 -5 -43 -3 -56 11 -72 53
-59 166 -5 644 309 157 104 305 199 327 212 l42 23 -112 75 c-130 88 -322 274
-375 363 -54 94 -82 174 -88 255 -6 71 -5 75 13 69 11 -3 145 -60 297 -125
152 -66 277 -116 277 -112 0 4 -7 32 -15 64 -29 112 -121 263 -258 422 -64 75
-304 325 -312 325 -3 0 -5 -16 -5 -36z"/>
<path d="M22390 82865 c-84 -84 -100 -105 -82 -105 22 0 22 -2 22 -125 l0
-125 395 0 395 0 0 75 0 75 -24 -10 c-36 -13 -135 -64 -196 -100 -29 -17 -54
-29 -57 -27 -5 5 68 145 102 195 l25 37 -82 7 c-100 8 -170 30 -220 69 -20 16
-39 29 -41 29 -2 0 -12 -18 -22 -41 l-19 -41 -16 59 c-14 52 -57 133 -70 133
-3 0 -52 -47 -110 -105z"/>
<path d="M23737 82693 c-19 -32 -46 -81 -60 -109 l-26 -52 132 68 c73 37 148
73 167 80 l35 12 -71 23 c-39 13 -86 26 -106 30 -35 7 -36 6 -71 -52z"/>
<path d="M22030 82484 c0 -48 -48 -169 -138 -345 -53 -103 -105 -222 -126
-287 -33 -103 -36 -121 -36 -233 l0 -121 60 55 c65 61 99 73 176 64 29 -3 65
-18 100 -42 l56 -37 33 32 c66 64 135 236 151 379 4 34 9 60 11 57 8 -8 -18
-238 -37 -336 -11 -52 -30 -126 -43 -165 l-24 -70 89 -101 c142 -162 182 -183
361 -184 l118 0 82 83 c56 55 93 103 115 147 34 69 73 172 67 179 -10 9 -113
-24 -135 -44 -59 -55 -180 -97 -312 -110 l-68 -7 0 79 c0 136 -20 394 -41 513
-35 209 -103 384 -184 478 l-37 42 -119 0 -119 0 0 -26z"/>
<path d="M25176 82427 c38 -40 87 -94 110 -120 27 -32 48 -47 65 -47 13 0 61
-13 106 -29 l82 -28 -15 36 c-41 98 -103 170 -183 211 -47 23 -151 50 -200 50
l-34 0 69 -73z"/>
<path d="M31418 82447 c-4 -21 -1 -27 13 -27 22 0 24 10 5 35 -12 17 -13 17
-18 -8z"/>
<path d="M32120 82390 c-19 -10 -48 -32 -64 -48 l-29 -31 59 -16 c33 -9 72
-21 88 -26 55 -17 59 -14 52 41 -14 104 -34 119 -106 80z"/>
<path d="M25953 82255 c-76 -17 -145 -53 -208 -109 l-47 -41 88 -87 c49 -48
86 -89 84 -91 -3 -3 -71 -10 -151 -16 -80 -6 -159 -13 -175 -17 l-29 -6 37
-111 c20 -62 35 -114 33 -116 -2 -2 -99 21 -214 50 -234 58 -218 58 -300 -7
-43 -33 -43 -34 -17 -34 27 0 28 -1 21 -42 -27 -164 -214 -459 -363 -574 -50
-38 -53 -43 -86 -149 -32 -101 -96 -323 -96 -333 0 -2 28 20 63 50 87 75 123
101 192 135 180 91 322 55 430 -110 45 -69 53 -76 80 -74 26 2 31 7 43 52 241
898 459 1178 986 1270 49 8 103 15 120 15 l31 0 -3 102 c-4 116 2 107 -112
167 -146 76 -289 103 -407 76z"/>
<path d="M28630 82082 c0 -217 1 -218 119 -74 l44 54 -50 51 c-27 29 -64 69
-81 90 l-32 38 0 -159z"/>
<path d="M31113 82167 c-89 -60 -206 -161 -222 -190 -12 -23 -10 -29 20 -74
18 -26 75 -91 126 -143 l92 -95 1 95 c0 119 17 305 34 388 7 34 12 62 12 62
-1 0 -29 -20 -63 -43z"/>
<path d="M31495 82006 c-55 -46 -179 -160 -276 -252 -96 -93 -192 -178 -212
-189 -20 -11 -37 -22 -37 -25 0 -3 29 -34 63 -68 l64 -63 144 11 c296 22 500
88 637 205 35 31 41 40 30 52 -8 10 -22 13 -46 8 -54 -10 -82 14 -82 73 -1 41
-7 56 -50 112 -28 36 -68 100 -91 143 -22 42 -41 77 -42 77 -1 0 -47 -38 -102
-84z"/>
<path d="M23101 81894 c0 -11 3 -14 6 -6 3 7 2 16 -1 19 -3 4 -6 -2 -5 -13z"/>
<path d="M23079 81801 c-12 -45 -12 -58 -3 -54 7 3 16 24 20 48 10 68 0 72
-17 6z"/>
<path d="M24227 81835 c-104 -15 -138 -23 -98 -24 40 -2 265 -50 454 -98 97
-24 181 -43 186 -41 5 2 -2 40 -16 84 l-25 81 -76 7 c-117 10 -317 5 -425 -9z"/>
<path d="M31949 81711 c-13 -11 -21 -22 -18 -25 3 -3 16 5 29 19 28 30 22 33
-11 6z"/>
<path d="M23708 81650 c-39 -11 -166 -102 -234 -166 -33 -30 -50 -51 -39 -45
50 23 270 95 375 121 112 29 287 61 403 75 31 3 57 11 57 16 0 11 -524 11
-562 -1z"/>
<path d="M27165 81501 c-120 -53 -130 -60 -133 -86 -6 -45 16 -144 44 -202
l25 -53 90 0 89 0 0 -36 0 -37 56 7 c92 11 184 37 184 52 0 16 17 19 22 4 2
-5 9 -6 16 -1 11 6 -19 57 -120 209 -73 111 -135 201 -138 201 -3 -1 -63 -27
-135 -58z"/>
<path d="M22830 80985 c0 -91 -3 -165 -7 -165 -5 0 -69 -5 -143 -10 -341 -26
-538 -101 -882 -335 -317 -214 -430 -284 -595 -367 l-162 -81 -46 -130 c-25
-71 -44 -131 -42 -133 2 -2 37 35 78 82 116 134 214 213 345 276 38 19 118 67
177 106 59 40 114 75 122 79 13 4 15 -19 15 -162 l0 -166 23 7 c39 12 229 95
300 130 107 54 269 153 426 261 140 96 144 99 156 145 15 62 47 106 150 208
l85 85 0 -92 0 -92 33 19 c106 62 319 129 476 150 l91 13 0 161 0 161 40 -61
c38 -59 92 -105 138 -119 22 -6 22 -5 22 94 l0 101 -400 0 -400 0 0 -165z"/>
<path d="M29948 80991 l-77 -158 39 -119 c22 -65 40 -136 40 -156 0 -34 -3
-38 -24 -38 -15 0 -53 23 -98 59 -40 32 -76 57 -79 55 -14 -8 -186 -284 -226
-362 -42 -81 -43 -85 -43 -182 0 -69 4 -100 12 -100 29 0 159 170 209 273 13
26 27 47 31 47 11 0 133 -76 196 -123 l56 -40 115 27 c64 15 133 32 153 37 33
8 41 18 80 92 25 45 94 159 154 252 163 251 262 425 317 558 l16 37 -397 -1
-397 0 -77 -158z"/>
<path d="M21381 80989 c-29 -83 -51 -153 -48 -156 3 -3 94 -8 201 -11 l196 -5
0 55 c0 55 0 55 -42 74 -70 31 -151 88 -204 142 l-50 51 -53 -150z"/>
<path d="M25651 80780 c-73 -27 -143 -70 -232 -144 l-74 -61 200 -7 c281 -9
382 -37 487 -136 28 -26 63 -71 79 -102 l29 -55 -6 45 c-27 193 -145 400 -259
455 -58 28 -157 30 -224 5z"/>
<path d="M27207 80649 c-15 -58 -28 -260 -22 -332 8 -84 25 -162 44 -193 15
-25 10 490 -5 525 l-11 25 -6 -25z"/>
<path d="M23412 80555 c-24 -53 -31 -210 -31 -695 l-1 -475 21 33 c12 17 22
32 24 32 4 0 256 -88 290 -101 27 -10 44 -7 155 33 69 25 160 54 202 64 l77
18 -130 42 c-145 48 -269 107 -341 161 l-48 37 0 405 0 406 -100 -100 -99 -99
-3 134 c-3 123 -4 132 -16 105z"/>
<path d="M24306 80549 c-38 -5 -71 -11 -73 -13 -2 -2 -2 -49 -1 -105 l3 -101
115 115 115 115 -45 -1 c-25 -1 -76 -6 -114 -10z"/>
<path d="M24490 80522 c0 -42 29 -150 62 -231 l22 -55 14 42 c33 101 172 202
331 240 39 9 71 20 71 23 0 12 -108 19 -302 19 l-198 0 0 -38z"/>
<path d="M28904 80258 c-35 -77 -95 -162 -167 -236 l-72 -73 29 -24 c84 -67
219 -109 356 -109 110 1 193 20 287 67 62 32 63 33 48 55 -15 21 -23 22 -136
22 l-119 0 0 110 0 110 -91 60 c-50 33 -97 60 -104 60 -6 0 -21 -19 -31 -42z"/>
<path d="M31784 80293 l-62 -4 -6 -47 c-13 -94 -48 -149 -179 -274 -75 -74
-118 -121 -112 -127 13 -12 305 -76 435 -95 58 -8 153 -18 213 -22 l107 -7 0
29 c1 61 39 116 164 238 130 128 153 164 170 274 l6 42 -337 -2 c-186 -1 -366
-3 -399 -5z"/>
<path d="M30298 79788 c62 -92 127 -173 182 -228 l85 -85 3 184 c1 101 1 185
0 186 -2 2 -243 58 -345 80 -17 4 -2 -24 75 -137z"/>
<path d="M28544 79879 c-146 -72 -334 -89 -486 -43 -16 5 -18 -2 -18 -54 l0
-59 97 23 c274 66 401 52 422 -46 11 -55 -5 -128 -73 -339 -58 -177 -83 -274
-101 -383 l-6 -37 58 58 c77 76 175 131 235 131 60 0 131 22 173 55 l35 26 0
125 0 124 -130 0 -130 0 -2 228 -3 227 -71 -36z"/>
<path d="M25478 79353 l-107 -108 -11 -110 c-20 -201 -59 -392 -115 -554 l-25
-74 53 58 52 57 255 -127 c140 -70 257 -129 259 -131 2 -2 -4 -14 -15 -25
l-19 -22 40 6 c22 4 53 7 68 7 25 0 31 7 53 57 44 99 112 308 138 425 33 150
53 309 62 496 l7 152 -294 0 -294 0 -107 -107z"/>
<path d="M24157 79328 l-65 -113 221 -3 221 -2 37 36 c21 21 35 42 32 47 -12
20 -336 147 -374 147 -4 0 -36 -51 -72 -112z"/>
<path d="M24535 78568 c34 -205 161 -458 229 -458 16 0 59 37 142 120 65 67
120 124 122 128 2 6 -479 252 -494 252 -3 0 -3 -19 1 -42z"/>
<path d="M25282 78334 c-18 -75 -31 -138 -29 -140 2 -2 18 1 35 7 l32 11 0
129 c0 71 -1 129 -2 129 -2 0 -18 -61 -36 -136z"/>
<path d="M26910 78343 c-329 -23 -462 -49 -647 -126 l-153 -64 83 -57 c45 -31
113 -78 150 -105 83 -58 127 -75 173 -66 44 8 101 66 133 133 23 49 24 50 79
57 79 10 164 37 332 107 80 34 186 76 235 94 l90 33 -215 -1 c-118 -1 -235 -3
-260 -5z"/>
<path d="M22730 78299 c-25 -22 -99 -77 -165 -122 -139 -95 -212 -163 -243
-227 -29 -60 -44 -169 -31 -234 17 -94 65 -142 285 -284 112 -72 96 -76 165
39 l39 66 -2 400 -3 401 -45 -39z"/>
<path d="M24955 78196 c-61 -20 -152 -69 -134 -73 23 -5 119 34 154 62 34 28
34 28 -20 11z"/>
<path d="M25216 78097 c-82 -271 -136 -490 -136 -553 0 -24 0 -24 120 -24
l120 0 0 310 0 310 -39 20 -40 20 -25 -83z"/>
<path d="M23834 78018 c-60 -89 -196 -360 -186 -370 15 -15 170 -71 256 -93
50 -13 123 -27 161 -31 59 -8 33 -10 -156 -14 l-226 -5 54 -180 c29 -99 60
-201 68 -227 8 -27 13 -48 11 -48 -2 0 -23 30 -48 68 -48 70 -189 243 -228
277 l-23 20 -21 -29 c-11 -17 -38 -49 -58 -72 -21 -22 -38 -44 -38 -47 0 -2
16 -8 36 -12 84 -15 199 -81 289 -165 85 -79 95 -84 183 -78 93 7 144 27 195
76 71 68 104 165 114 333 l6 100 69 -68 c80 -78 193 -208 263 -303 26 -36 45
-58 43 -50 -3 8 -32 104 -64 212 l-58 197 -101 3 -100 3 3 51 c2 29 9 76 15
105 l12 53 -75 57 c-41 31 -134 114 -207 183 -72 69 -133 126 -136 126 -2 0
-26 -33 -53 -72z"/>
<path d="M24530 77560 l0 -40 148 1 147 0 -85 19 c-47 10 -112 28 -144 39 -33
12 -61 21 -63 21 -1 0 -3 -18 -3 -40z"/>
<path d="M26276 77396 c14 -23 35 -62 46 -88 l21 -48 68 0 68 0 48 -62 c56
-73 116 -190 134 -259 14 -55 26 -60 77 -29 18 11 48 20 67 20 28 0 46 9 80
41 25 23 47 40 48 38 2 -2 9 -37 15 -77 18 -110 58 -202 171 -391 111 -187
137 -239 153 -314 l10 -49 119 118 119 119 0 80 c0 291 -82 566 -213 717 l-32
37 -240 10 c-356 15 -545 52 -712 140 l-72 38 25 -41z"/>
<path d="M25256 76954 c-220 -133 -434 -347 -559 -561 -60 -101 -120 -246
-151 -360 l-23 -89 56 -31 c67 -38 109 -75 144 -129 27 -41 57 -138 57 -186
l0 -28 -141 0 -141 0 -41 -33 c-23 -19 -59 -44 -79 -56 -21 -13 -38 -24 -38
-26 0 -1 7 -22 16 -46 8 -24 16 -75 16 -114 0 -115 -45 -207 -164 -331 l-59
-61 47 -79 c52 -87 166 -321 235 -481 l44 -103 11 68 c28 157 83 235 369 517
213 211 236 236 270 306 63 131 57 240 -21 372 -19 32 -34 60 -34 63 0 2 114
4 254 4 l254 0 -5 43 c-7 64 -31 130 -63 179 -48 72 -129 122 -312 192 -160
61 -208 109 -208 205 0 51 35 162 65 204 8 12 15 36 15 55 0 44 12 65 81 139
69 75 131 194 154 297 24 109 21 113 -49 70z"/>
<path d="M22043 75883 c70 -215 72 -332 8 -469 -28 -59 -103 -147 -161 -188
-14 -9 -18 -15 -9 -12 10 2 53 12 97 22 l79 17 83 186 c84 189 130 338 130
417 l0 44 -116 0 c-106 0 -116 -2 -111 -17z"/>
<path d="M22970 75270 c-126 -23 -237 -49 -430 -102 -128 -35 -150 -44 -185
-77 -31 -30 -103 -65 -330 -162 l-290 -124 299 -3 298 -2 182 -142 c221 -173
368 -293 506 -412 l104 -91 166 0 c158 0 169 2 258 32 50 17 92 30 92 28 0 -1
-29 -74 -63 -161 -35 -87 -71 -187 -81 -221 l-17 -62 55 -74 c29 -40 83 -120
118 -177 l65 -104 59 -12 c80 -17 271 -34 372 -34 45 0 82 -3 82 -7 -1 -5 -26
-27 -57 -50 -30 -23 -110 -90 -177 -150 l-122 -108 30 -97 29 -98 398 0 397 0
-25 83 c-123 403 -343 763 -665 1088 -125 127 -330 309 -340 303 -3 -2 -10
-30 -14 -60 l-7 -56 -44 103 c-24 57 -49 109 -55 117 -6 7 -112 91 -235 187
l-223 175 -297 0 c-163 0 -293 4 -287 8 5 5 77 38 160 73 l150 64 17 55 c31
106 106 199 216 267 44 28 33 28 -109 3z"/>
<path d="M22985 75079 c-36 -34 -93 -109 -81 -109 2 0 50 20 107 45 115 51
154 79 129 95 -8 5 -36 10 -63 10 -42 0 -53 -5 -92 -41z"/>
<path d="M21240 74464 c0 -2 47 -26 105 -55 296 -144 585 -353 845 -611 105
-104 287 -304 350 -385 25 -32 26 -32 136 -39 l111 -7 6 -181 c7 -231 16 -280
77 -386 26 -47 62 -113 79 -147 31 -62 82 -109 145 -133 25 -9 26 -8 26 24 0
50 25 172 49 241 12 32 21 63 21 67 0 4 -79 9 -175 10 l-174 3 57 46 c31 25
127 108 212 185 86 76 179 159 208 182 34 29 52 51 52 66 0 22 -3 23 -152 29
-169 7 -309 32 -390 70 -171 78 -200 197 -114 463 l34 105 -81 65 -81 64 -76
0 c-168 0 -301 34 -625 160 -225 87 -333 122 -450 144 -76 14 -195 26 -195 20z"/>
<path d="M20340 74206 c0 -141 -2 -256 -5 -256 -3 0 -118 57 -256 126 l-251
125 6 -45 c10 -65 45 -163 105 -295 29 -63 57 -125 62 -138 8 -23 9 -23 189
-23 l181 0 -57 -67 c-107 -125 -171 -241 -188 -337 l-7 -38 38 7 c21 3 85 22
143 40 123 40 224 65 263 65 20 0 72 -33 187 -120 88 -66 161 -120 164 -120 2
0 6 49 8 109 3 105 4 111 46 194 24 46 66 112 93 146 27 34 49 65 49 69 0 5
-10 18 -23 30 -23 21 -31 22 -265 22 l-242 0 0 80 c0 96 5 96 -120 -5 l-80
-64 -2 372 c-3 345 -4 372 -20 375 -17 3 -18 -14 -18 -252z"/>
<path d="M19593 73328 l-103 -31 0 -83 c0 -46 2 -84 5 -84 5 0 277 201 300
221 22 20 -108 5 -202 -23z"/>
<path d="M21222 72988 l3 -123 -95 -8 c-52 -4 -118 -10 -147 -13 l-52 -5 -3
-467 c-3 -505 -2 -494 -59 -566 -25 -32 -75 -56 -115 -56 -21 0 -25 -3 -19
-17 20 -49 85 -333 101 -440 l19 -123 33 0 c24 0 52 -15 110 -59 42 -32 111
-79 152 -105 l75 -46 3 100 3 100 209 0 c121 0 210 4 210 9 0 27 -52 311 -70
382 -39 154 -129 417 -152 447 -6 6 -21 12 -35 12 -44 0 -103 39 -134 88 -43
68 -68 158 -80 294 -11 119 -11 119 14 156 37 56 115 131 179 173 124 80 297
125 520 136 125 6 129 7 124 27 -3 12 -11 67 -18 124 l-12 102 -384 0 -384 0
4 -122z"/>
<path d="M23580 72809 c-43 -38 -326 -227 -397 -265 -29 -16 -53 -32 -53 -35
0 -3 23 -11 51 -17 78 -18 241 -14 349 8 52 11 98 20 103 20 4 0 7 -58 7 -130
l0 -130 -256 0 -257 0 6 -101 c7 -136 28 -176 156 -303 l100 -99 55 12 c62 14
99 39 205 135 81 75 137 105 194 106 l37 0 0 63 c0 143 -39 338 -99 492 -37
96 -134 269 -153 272 -7 1 -29 -11 -48 -28z"/>
<path d="M27149 72418 c-201 -157 -603 -539 -550 -523 24 7 24 6 -7 -33 -67
-84 -103 -199 -116 -367 l-7 -80 22 30 c12 17 52 59 89 95 134 133 332 204
584 212 76 2 79 2 105 -28 l27 -30 37 76 c20 41 44 85 53 98 12 16 13 21 3 18
-67 -24 -453 -135 -456 -132 -3 3 308 712 324 739 9 14 -4 6 -108 -75z"/>
<path d="M27843 71739 c-148 -19 -347 -94 -401 -152 l-22 -23 50 -49 49 -48
42 12 c199 60 501 -19 959 -251 74 -38 122 -58 105 -46 -105 80 -226 192 -398
367 l-195 201 -64 -1 c-34 -1 -91 -5 -125 -10z"/>
<path d="M26768 71476 c-68 -20 -127 -57 -180 -114 -46 -49 -108 -157 -108
-187 0 -13 32 -15 249 -15 l250 0 78 -152 c44 -84 119 -215 167 -291 l88 -138
33 78 c17 43 52 123 77 178 64 142 87 207 94 270 l7 55 -127 0 c-75 0 -126 4
-126 10 0 21 49 118 82 161 l36 46 -57 19 c-31 10 -60 21 -66 25 -5 4 -53 19
-105 34 -116 33 -314 43 -392 21z"/>
<path d="M23640 71155 l0 -255 -105 0 c-132 0 -152 -9 -272 -125 l-88 -84 90
30 c50 16 200 59 335 95 135 35 253 67 263 70 16 5 17 26 17 265 l0 259 -120
0 -120 0 0 -255z"/>
<path d="M19905 71143 c-90 -19 -135 -38 -135 -58 0 -32 39 -125 75 -179 20
-30 114 -133 209 -228 234 -235 294 -336 316 -529 9 -77 0 -212 -20 -294 -5
-22 -7 -41 -5 -43 7 -7 207 20 257 35 123 36 214 106 262 200 25 50 56 178 56
231 0 28 -3 30 -54 36 -91 12 -167 55 -256 148 -44 45 -80 86 -80 89 0 18
-104 81 -149 92 l-51 12 0 52 c0 67 17 145 46 210 l23 52 -61 37 c-34 21 -96
64 -139 96 l-77 58 -74 -1 c-40 0 -104 -7 -143 -16z"/>
<path d="M22030 70735 l0 -425 -129 0 -129 0 -7 -47 c-6 -42 -25 -106 -50
-166 -7 -16 3 -13 56 13 102 52 236 148 332 239 95 91 237 270 237 300 0 10 9
26 21 37 54 49 144 282 164 427 l6 47 -250 0 -251 0 0 -425z"/>
<path d="M27540 71155 c0 -2 57 -134 126 -292 178 -404 209 -477 275 -653 l58
-155 40 3 c50 4 53 -11 15 -75 -23 -40 -25 -50 -18 -113 l7 -70 -93 0 -93 0
-141 -91 c-196 -127 -305 -209 -374 -283 -76 -81 -102 -135 -102 -209 l0 -57
47 30 c44 28 53 30 147 30 l100 0 201 -200 c111 -110 206 -200 212 -200 6 0
35 16 64 35 29 19 56 36 60 37 5 2 -1 35 -13 73 -15 52 -20 102 -21 195 -2
114 0 129 22 170 47 90 171 196 426 366 258 171 366 263 383 324 5 19 8 36 7
37 -1 2 -26 -4 -56 -13 -89 -26 -184 -82 -271 -159 -47 -42 -94 -76 -111 -79
-64 -13 -62 -16 -74 117 -22 229 -87 390 -267 671 -159 247 -203 321 -264 448
l-57 118 -117 0 c-65 0 -118 -2 -118 -5z"/>
<path d="M26725 71115 c-14 -82 -39 -153 -105 -300 -102 -226 -118 -277 -145
-449 l-7 -39 -145 144 -145 144 6 -75 c18 -203 98 -350 228 -416 83 -42 158
-54 346 -54 l172 0 0 294 c0 162 4 296 8 298 5 2 -19 66 -53 143 -34 77 -83
187 -108 245 l-45 105 -7 -40z"/>
<path d="M21626 70784 l-39 -82 44 -51 44 -51 3 98 c1 53 -1 113 -5 133 l-8
35 -39 -82z"/>
<path d="M48280 63505 l0 -7195 395 0 395 0 0 7195 0 7195 -395 0 -395 0 0
-7195z"/>
<path d="M61229 70538 c-1 -90 -3 -175 -5 -190 l-3 -28 400 0 399 0 0 190 0
190 -395 0 -395 0 -1 -162z"/>
<path d="M26131 70643 c1 -5 1 -137 0 -295 l-1 -288 -142 0 c-257 1 -361 27
-459 118 -72 67 -110 142 -138 272 l-20 95 0 -367 -1 -368 129 0 128 0 42 -90
c101 -221 145 -393 145 -560 -1 -98 -5 -127 -28 -194 -15 -43 -38 -98 -52
-121 -37 -64 -103 -135 -125 -135 -15 0 -19 -7 -19 -37 l1 -38 17 33 18 32 49
-75 c27 -42 64 -87 82 -101 l33 -25 172 72 c223 92 329 128 401 136 54 5 61
10 102 56 87 96 145 251 145 384 l0 73 -28 0 c-39 0 -90 -28 -158 -87 -90 -77
-235 -163 -276 -163 -8 0 -9 33 -5 103 14 238 108 424 273 542 l70 51 -29 67
-30 67 -128 0 -129 0 0 413 c0 308 -3 416 -12 425 -13 13 -29 16 -27 5z"/>
<path d="M30967 70626 c-37 -14 -149 -73 -249 -132 -99 -59 -212 -119 -250
-134 l-69 -27 44 -40 c66 -61 72 -63 152 -46 157 33 314 -16 453 -141 l37 -34
148 -7 147 -8 0 -125 0 -124 148 4 c193 6 215 15 347 148 l98 98 -59 7 c-258
28 -396 61 -531 127 -181 88 -303 257 -303 420 0 47 -14 48 -113 14z"/>
<path d="M30240 70090 c0 -5 5 -10 11 -10 5 0 7 5 4 10 -3 6 -8 10 -11 10 -2
0 -4 -4 -4 -10z"/>
<path d="M23680 70025 c19 -19 35 -35 37 -35 2 0 3 16 3 35 0 34 -1 35 -37 35
l-37 0 34 -35z"/>
<path d="M32071 70037 c27 -14 57 -42 77 -71 l32 -48 0 71 0 71 -77 0 -76 0
44 -23z"/>
<path d="M32674 69950 c-130 -128 -148 -135 -339 -146 l-124 -7 6 -51 c13
-121 16 -129 48 -137 101 -26 265 -41 500 -46 l260 -6 -6 104 c-16 244 -79
362 -209 392 -21 5 -41 -9 -136 -103z"/>
<path d="M31090 69529 l0 -194 22 45 c31 63 99 128 195 185 45 27 80 51 78 53
-2 3 -62 24 -132 47 -70 23 -136 46 -145 50 -17 7 -18 -6 -18 -186z"/>
<path d="M24160 69399 c0 -2 9 -33 21 -69 23 -75 49 -233 49 -304 0 -48 0 -49
20 -31 15 14 20 31 20 69 -1 119 -47 282 -91 322 -10 9 -19 15 -19 13z"/>
<path d="M60680 68971 l0 -329 148 -54 c81 -31 170 -60 197 -67 61 -14 427
-50 588 -58 64 -3 117 -8 117 -10 0 -3 -24 -42 -54 -86 -57 -87 -107 -182
-205 -389 -58 -124 -138 -255 -201 -330 l-32 -38 246 0 246 0 0 -43 c0 -113
-77 -291 -169 -390 -68 -73 -81 -94 -82 -139 -1 -18 -7 17 -14 79 -19 164 -53
258 -122 334 -33 36 -125 99 -145 99 -5 0 -8 -119 -8 -265 0 -262 0 -265 21
-265 l21 0 -20 -32 c-18 -29 -21 -54 -23 -183 -2 -90 1 -150 7 -150 5 0 52 9
104 20 140 29 424 28 569 -4 57 -12 105 -20 107 -18 3 2 6 278 8 614 3 335 8
744 12 910 l7 300 -48 8 c-71 10 -224 56 -350 104 -189 73 -248 92 -320 105
l-70 12 -6 75 c-16 199 -107 332 -289 424 -52 26 -220 95 -232 95 -4 0 -8
-148 -8 -329z"/>
<path d="M51827 69212 c-67 -70 -84 -103 -73 -145 7 -31 39 -71 76 -97 l30
-21 34 37 c46 50 78 118 84 176 4 44 2 50 -31 83 -19 19 -39 35 -44 35 -6 0
-39 -31 -76 -68z"/>
<path d="M31672 69161 c-6 -27 -43 -135 -82 -240 -38 -105 -70 -193 -70 -196
0 -3 -16 -28 -35 -56 -31 -46 -55 -104 -55 -136 0 -26 253 -3 394 35 l30 8
-50 28 c-27 16 -68 44 -91 63 -36 29 -43 40 -43 69 0 47 12 66 85 146 67 73
151 224 162 291 l6 37 -120 0 -120 0 -11 -49z"/>
<path d="M26940 68984 c0 -8 5 -12 10 -9 6 4 8 11 5 16 -9 14 -15 11 -15 -7z"/>
<path d="M29050 68944 c-88 -17 -229 -81 -289 -132 l-32 -27 68 -67 68 -67 70
25 c39 14 102 28 140 31 l70 5 66 -50 c90 -69 164 -154 205 -237 34 -70 64
-193 64 -266 l0 -39 125 0 125 0 0 -224 0 -225 54 -24 c73 -34 140 -97 173
-166 40 -80 39 -182 -1 -261 -33 -62 -115 -147 -182 -186 l-46 -27 -103 103
c-137 136 -146 158 -153 348 -4 108 -8 142 -18 142 -7 0 -16 -16 -19 -37 -20
-125 -44 -223 -102 -423 -95 -326 -131 -463 -144 -550 l-11 -78 119 -158 c66
-88 123 -165 128 -173 7 -12 -43 -13 -328 -9 -384 6 -379 7 -456 -76 -55 -61
-109 -177 -159 -343 l-39 -131 76 -27 c90 -32 230 -102 359 -178 110 -65 144
-74 202 -51 57 23 105 99 147 229 17 55 47 151 67 213 64 204 128 307 221 355
44 23 44 23 338 12 l177 -7 0 132 c0 125 -1 133 -25 164 -17 22 -25 46 -25 72
-1 63 59 329 105 469 49 148 125 419 125 446 0 10 -10 24 -22 30 -13 6 -54 36
-92 67 -67 54 -68 55 -63 95 7 48 30 82 85 122 22 17 41 34 41 38 1 15 -62
101 -121 164 -51 55 -58 67 -58 103 0 37 -32 120 -46 120 -3 0 -39 -15 -80
-34 l-74 -35 0 182 0 182 -64 86 c-128 169 -291 301 -434 348 -62 21 -184 34
-232 25z"/>
<path d="M80370 68720 c-105 -43 -184 -98 -188 -131 -3 -23 5 -32 55 -62 78
-47 118 -67 178 -88 l50 -18 -130 -1 c-71 0 -135 -4 -142 -8 -6 -4 -13 -40
-15 -82 l-3 -75 154 51 c243 82 448 114 750 115 l166 0 -55 21 c-30 12 -93 44
-140 71 -337 198 -398 225 -530 233 -67 4 -83 1 -150 -26z"/>
<path d="M28265 68704 c-55 -11 -145 -37 -145 -41 0 -7 35 -36 153 -126 l109
-82 -64 -11 c-163 -27 -283 -95 -471 -267 -47 -42 -111 -106 -142 -142 -47
-53 -55 -68 -45 -80 10 -12 38 -1 191 75 98 50 181 90 184 90 3 0 5 -103 5
-230 l0 -229 38 -10 c120 -32 302 -51 488 -51 101 0 104 -1 104 -22 1 -143 27
-338 44 -338 2 0 39 82 82 183 42 100 79 184 81 186 7 9 76 -67 118 -129 61
-92 86 -160 93 -260 l7 -85 37 59 c78 124 60 271 -46 375 -37 36 -50 42 -126
57 -108 20 -224 65 -299 115 -110 73 -232 224 -281 347 -12 31 -11 35 41 114
30 46 82 118 117 161 60 75 62 79 48 105 -23 45 -96 122 -174 184 -72 57 -90
63 -147 52z"/>
<path d="M26382 68593 c-55 -134 -82 -240 -89 -353 -6 -94 -5 -99 36 -215 23
-66 53 -137 67 -159 39 -58 145 -158 224 -211 38 -25 70 -48 70 -50 0 -5 -179
-60 -223 -70 -25 -5 -28 -9 -23 -33 13 -58 26 -316 26 -497 l0 -190 105 105
c57 57 107 102 109 99 10 -9 122 -480 152 -631 l28 -147 45 -20 c64 -27 188
-51 266 -51 l65 0 0 292 0 292 62 -59 c65 -63 66 -60 7 15 l-36 45 -7 289 c-3
159 -10 294 -15 300 -5 6 -11 65 -14 131 -3 66 -17 172 -30 237 -32 150 -87
338 -99 338 -6 0 -31 -11 -57 -25 -25 -14 -106 -54 -180 -91 l-135 -66 147
154 c80 84 153 158 162 163 13 9 7 27 -47 135 l-63 125 -135 5 c-108 5 -144
10 -182 27 -56 26 -117 87 -159 159 -17 30 -32 54 -33 54 -2 0 -22 -44 -44
-97z"/>
<path d="M30580 68570 c0 -110 1 -120 19 -120 15 0 19 11 25 66 4 37 13 82 21
100 13 32 13 33 -21 53 -19 12 -37 21 -40 21 -2 0 -4 -54 -4 -120z"/>
<path d="M32980 68680 c-9 -5 -75 -29 -147 -54 -239 -81 -492 -124 -664 -112
l-86 6 -57 -110 c-31 -60 -73 -133 -92 -161 -19 -29 -33 -53 -32 -55 6 -5 335
-54 437 -64 169 -17 220 -14 279 16 66 33 96 72 197 258 44 81 103 179 132
217 29 38 51 69 50 69 -1 0 -9 -5 -17 -10z"/>
<path d="M18980 68124 l0 -511 28 -6 c15 -3 52 -31 82 -61 l54 -56 -82 0 -82
0 0 -29 c0 -88 89 -258 203 -386 l45 -50 18 34 c140 257 315 402 517 431 47 6
105 9 129 5 l43 -7 -55 56 -54 56 -298 0 -298 0 0 38 c0 64 28 150 101 314 38
86 80 186 93 221 27 70 56 199 56 247 0 30 0 30 -57 30 -202 1 -367 61 -424
154 -19 31 -19 24 -19 -480z"/>
<path d="M30580 68195 c0 -36 2 -65 5 -65 3 0 28 11 55 25 27 13 81 35 120 49
65 21 69 25 44 30 -25 5 -196 26 -216 26 -5 0 -8 -29 -8 -65z"/>
<path d="M81281 67844 c-24 -27 -102 -130 -174 -229 -72 -99 -151 -205 -175
-235 l-45 -55 117 -3 116 -3 0 -249 0 -249 31 -50 c30 -47 31 -55 27 -120 -4
-56 -2 -71 9 -76 8 -3 102 -8 209 -12 107 -3 194 -8 194 -10 0 -3 -21 -37 -46
-76 -201 -311 -431 -493 -651 -514 l-63 -6 0 -128 c0 -71 -2 -129 -4 -129 -3
0 -40 24 -83 54 -43 29 -121 77 -173 106 l-94 52 -63 -68 c-108 -117 -211
-260 -259 -360 -54 -110 -58 -138 -69 -456 l-7 -197 226 -113 c124 -62 226
-117 226 -123 0 -5 -14 -56 -31 -112 l-32 -102 40 -45 c71 -81 80 -173 25
-251 -33 -47 -116 -107 -181 -131 -70 -26 -71 -28 -71 -115 l0 -79 251 -126
252 -125 -43 -44 -42 -43 28 -18 c95 -57 135 -87 177 -129 67 -67 91 -117 91
-190 1 -79 -37 -149 -121 -223 -34 -30 -67 -69 -74 -86 -6 -17 -14 -106 -16
-198 l-6 -168 152 0 151 0 0 -130 0 -130 -125 0 -125 0 0 -234 0 -235 68 32
c78 37 192 48 269 27 116 -33 270 -178 377 -356 l35 -58 3 719 3 720 23 47
c13 26 37 59 54 73 l30 25 -182 0 -182 0 4 153 c4 193 13 214 143 346 l94 97
-249 124 -250 125 0 45 c1 113 31 227 79 300 20 29 162 425 167 465 l6 40
-252 125 -252 125 5 120 c7 138 27 252 64 363 92 277 271 498 673 832 266 221
346 305 396 415 32 70 29 127 -10 183 l-26 38 0 252 0 252 -295 0 -295 0 -2
292 -3 292 -44 -50z"/>
<path d="M31305 67853 c-150 -7 -277 -33 -352 -71 -48 -25 -101 -82 -109 -120
-3 -15 -7 -33 -10 -40 -5 -18 122 -119 202 -158 119 -60 197 -58 266 4 66 60
96 144 113 325 l7 67 -29 -2 c-15 -1 -55 -3 -88 -5z"/>
<path d="M25557 67822 c-41 -44 -86 -125 -117 -212 -17 -44 -30 -83 -30 -85 0
-10 129 -4 215 10 50 8 127 27 173 43 l83 28 -68 47 c-38 25 -105 80 -150 121
l-80 75 -26 -27z"/>
<path d="M28061 67556 c-17 -39 -21 -65 -19 -125 l3 -75 119 -68 c65 -38 120
-67 122 -65 2 1 -3 31 -12 66 -20 86 -74 187 -139 258 l-53 58 -21 -49z"/>
<path d="M60680 67349 l0 -250 58 62 c100 109 149 200 176 332 24 117 34 107
-109 107 l-125 0 0 -251z"/>
<path d="M31026 67252 c-64 -102 -146 -259 -146 -280 0 -13 16 -14 98 -9 53 4
151 16 217 27 157 26 185 26 185 0 0 -49 -54 -112 -127 -149 -60 -30 -191 -59
-298 -67 -49 -4 -96 -10 -103 -14 -9 -4 20 -38 92 -107 130 -124 149 -132 339
-140 l137 -6 0 130 0 130 193 6 c277 8 417 42 506 122 36 33 71 99 58 112 -3
2 -86 -7 -184 -22 -233 -35 -408 -33 -520 7 -136 49 -266 155 -354 291 l-37
57 -56 -88z"/>
<path d="M52455 67050 c-44 -4 -103 -10 -132 -14 l-52 -8 19 -47 c10 -27 25
-81 34 -120 8 -40 17 -75 19 -77 2 -3 38 17 79 43 61 39 80 57 102 99 15 29
43 71 63 93 l35 41 -44 -1 c-24 -1 -79 -5 -123 -9z"/>
<path d="M25336 66989 c-3 -17 -6 -74 -6 -125 l0 -94 50 0 c57 0 200 27 214
40 10 10 -32 85 -76 136 -39 44 -96 74 -141 74 -31 0 -35 -4 -41 -31z"/>
<path d="M20973 66995 c-29 -20 -43 -73 -43 -158 0 -64 3 -72 35 -111 47 -57
76 -127 82 -195 9 -97 -49 -229 -149 -337 -22 -24 -34 -42 -25 -38 15 5 17 -6
17 -115 l0 -121 144 0 145 0 6 -57 c21 -191 71 -294 178 -367 65 -44 150 -72
245 -81 l72 -8 0 374 0 374 -126 -125 -126 -125 5 65 c7 78 41 178 136 407 70
169 111 299 111 355 0 26 -3 28 -40 28 -34 0 -48 8 -112 66 -76 69 -145 113
-238 154 -72 32 -281 42 -317 15z"/>
<path d="M25800 66935 c-41 -41 -71 -75 -67 -75 4 0 43 18 87 40 76 38 80 42
74 68 -4 15 -10 30 -13 34 -4 4 -40 -26 -81 -67z"/>
<path d="M28868 66683 c-31 -38 -78 -92 -103 -120 l-47 -53 106 0 106 0 0 120
c0 66 -1 120 -3 120 -1 0 -28 -30 -59 -67z"/>
<path d="M28040 66702 c0 -23 2 -42 4 -42 2 0 11 11 19 24 15 22 15 25 -3 41
-20 18 -20 17 -20 -23z"/>
<path d="M60974 66632 c-17 -26 -39 -60 -49 -76 l-19 -28 80 40 c43 21 97 45
119 52 62 19 61 26 -7 39 -35 7 -70 14 -78 16 -9 3 -27 -13 -46 -43z"/>
<path d="M80182 66497 l-44 -44 -8 -239 c-4 -132 -7 -240 -6 -241 4 -5 110 29
138 43 l28 14 -28 42 c-27 41 -27 43 -32 255 l-5 214 -43 -44z"/>
<path d="M30830 66213 l0 -288 285 285 c157 157 285 286 285 287 0 2 -128 3
-285 3 l-285 0 0 -287z"/>
<path d="M27556 66307 c2 -7 8 -42 12 -76 l7 -63 32 40 32 40 -44 37 c-25 20
-42 30 -39 22z"/>
<path d="M61912 66295 c-159 -73 -363 -120 -564 -131 l-118 -7 0 -115 c0 -114
0 -114 23 -108 12 4 47 14 77 22 87 25 244 30 332 10 80 -18 192 -67 262 -115
l43 -30 6 187 c9 243 9 312 0 311 -5 0 -32 -11 -61 -24z"/>
<path d="M20705 66005 c-44 -41 -77 -76 -74 -79 3 -3 41 30 84 74 44 44 77 80
75 80 -3 -1 -41 -34 -85 -75z"/>
<path d="M27215 65650 c-70 -12 -148 -33 -228 -63 -55 -21 -58 -23 -53 -51 3
-16 6 -125 6 -243 l0 -214 41 23 c23 13 112 71 198 130 231 159 380 253 478
303 l87 44 -29 11 c-134 52 -369 80 -500 60z"/>
<path d="M61734 65628 c3 -12 8 -40 11 -60 9 -59 42 -151 118 -333 39 -93 78
-195 88 -225 l18 -55 0 296 1 296 -112 49 c-61 27 -115 51 -120 52 -5 2 -7 -7
-4 -20z"/>
<path d="M22826 64292 c-3 -5 65 -78 150 -163 84 -84 154 -158 154 -162 0 -5
-31 -41 -69 -81 -196 -205 -287 -373 -260 -483 17 -63 80 -116 179 -147 81
-26 227 -46 335 -46 l65 0 1 -382 c0 -381 1 -383 18 -323 9 33 52 137 94 232
82 183 120 300 132 399 l7 61 -46 6 c-61 9 -116 38 -155 82 -17 20 -74 100
-125 178 -51 78 -114 165 -139 193 -26 29 -47 55 -47 58 0 3 15 6 33 6 54 0
137 49 179 104 20 27 71 112 114 190 42 78 99 174 126 214 l49 72 -395 0
c-217 0 -397 -4 -400 -8z"/>
<path d="M26428 63873 l-3 -422 -290 125 c-159 68 -291 124 -292 124 -2 0 -3
-185 -3 -411 l0 -412 45 42 c96 89 236 164 440 237 66 24 114 43 107 43 -9 1
-2 21 21 64 49 86 101 216 128 317 19 71 23 110 23 235 0 139 -2 156 -28 230
-27 79 -73 162 -121 220 l-25 30 -2 -422z"/>
<path d="M78993 63695 c-95 -21 -101 -27 -49 -52 l43 -21 44 44 c24 24 39 44
34 43 -6 0 -38 -7 -72 -14z"/>
<path d="M79990 63350 c0 -5 5 -10 11 -10 5 0 7 5 4 10 -3 6 -8 10 -11 10 -2
0 -4 -4 -4 -10z"/>
<path d="M27615 63233 c-44 -6 -81 -12 -82 -12 -2 -1 -3 -139 -3 -307 l0 -305
-275 3 -275 3 0 -127 0 -128 400 0 400 0 0 54 0 54 -67 41 c-38 22 -84 54
-103 71 l-35 30 35 31 c19 16 64 44 99 62 l64 31 -7 101 c-7 112 -28 247 -54
345 l-17 65 -80 -12z"/>
<path d="M26690 62818 c0 -14 9 -36 20 -49 l19 -24 1 31 c0 19 -8 38 -20 49
-20 18 -20 17 -20 -7z"/>
<path d="M79911 62254 c-7 -86 -11 -157 -9 -159 6 -5 107 -55 113 -55 3 0 5
25 5 55 l0 55 90 0 c89 0 90 0 80 21 -6 11 -59 70 -117 130 -72 74 -113 109
-128 109 -21 0 -22 -6 -34 -156z"/>
<path d="M28847 62033 c-55 -91 -102 -191 -135 -283 l-30 -86 25 -58 c87 -207
233 -330 405 -343 l73 -5 128 257 c71 142 125 261 120 265 -12 10 -539 310
-546 310 -3 0 -21 -26 -40 -57z"/>
<path d="M30761 61934 c0 -11 3 -14 6 -6 3 7 2 16 -1 19 -3 4 -6 -2 -5 -13z"/>
<path d="M30767 61768 c-8 -197 -55 -349 -140 -460 l-37 -48 116 0 117 0 -6
203 c-4 164 -29 422 -41 435 -2 1 -6 -57 -9 -130z"/>
<path d="M85477 61758 c-12 -101 -72 -158 -284 -272 -165 -88 -304 -180 -280
-184 9 -2 17 -9 17 -16 0 -37 214 -201 356 -273 84 -43 640 -273 660 -273 3 0
-10 18 -30 41 -112 123 -186 311 -186 470 l0 49 -255 0 c-140 0 -255 3 -255 7
0 5 111 119 247 255 l248 248 -116 0 -116 0 -6 -52z"/>
<path d="M30132 61545 c-77 -154 -102 -215 -102 -244 0 -35 -3 -39 -30 -44
-16 -4 -73 -4 -125 0 -84 5 -95 4 -101 -11 -9 -24 28 -54 136 -110 148 -77
299 -112 528 -123 l132 -6 0 122 0 121 -161 243 c-89 133 -164 245 -168 249
-4 4 -53 -85 -109 -197z"/>
<path d="M80493 61525 c-110 -20 -251 -61 -414 -120 -81 -29 -171 -59 -198
-66 -29 -7 -51 -19 -51 -26 0 -10 46 -13 225 -13 218 0 225 -1 225 -20 0 -24
-2 -24 58 -1 26 11 69 22 94 26 43 6 50 13 114 93 95 118 97 120 89 132 -8 13
-51 11 -142 -5z"/>
<path d="M29761 61279 c5 -11 14 -17 20 -14 15 10 10 22 -11 28 -17 4 -18 2
-9 -14z"/>
<path d="M80490 61010 l0 -290 35 0 c29 0 47 11 110 69 42 38 107 85 145 105
72 38 200 76 257 76 l33 0 0 165 0 165 -290 0 -290 0 0 -290z"/>
<path d="M30827 60927 c-14 -142 -85 -220 -317 -351 -47 -27 -127 -76 -177
-109 l-93 -61 0 -415 1 -416 41 45 c191 209 272 400 286 670 l7 125 51 6 c155
19 283 140 300 282 9 75 -26 191 -79 261 -13 17 -14 14 -20 -37z"/>
<path d="M32194 60329 c11 -104 45 -228 120 -430 91 -245 109 -317 110 -419 0
-65 -5 -96 -21 -132 -24 -53 -90 -128 -139 -159 l-34 -21 0 -481 0 -482 126
125 c107 106 125 120 119 95 -20 -86 -124 -281 -254 -473 -42 -62 -80 -120
-86 -128 -8 -11 -4 -20 15 -34 46 -36 184 -99 275 -125 114 -33 327 -54 349
-36 28 23 186 239 277 379 84 129 201 347 215 402 4 18 -28 -9 -115 -95 l-121
-120 -1 455 c-1 317 -4 434 -10 385 -14 -107 -55 -267 -87 -337 -54 -119 -126
-159 -200 -112 -55 36 -153 236 -198 406 l-18 66 54 58 c333 365 340 725 22
1026 -98 92 -198 158 -361 238 l-44 22 7 -73z"/>
<path d="M27590 59950 l-185 -189 50 -30 c165 -99 322 -147 548 -167 l77 -6 0
-123 0 -123 -73 -40 c-40 -22 -109 -67 -153 -100 -90 -67 -273 -228 -280 -247
-7 -17 51 -160 88 -217 58 -91 132 -135 208 -125 98 13 218 95 450 309 270
247 378 332 498 391 l62 31 0 123 0 123 -54 0 c-131 0 -308 38 -437 94 -141
62 -268 155 -445 328 -89 87 -163 158 -165 158 -2 -1 -87 -86 -189 -190z"/>
<path d="M77680 59182 c-67 -155 -191 -400 -254 -502 l-65 -105 23 -20 c12
-11 34 -29 49 -40 l26 -20 -24 -115 c-14 -63 -25 -116 -25 -117 0 -2 7 -3 15
-3 13 0 15 -21 15 -130 l0 -130 -60 0 c-33 0 -60 -4 -60 -9 0 -5 -3 -16 -6
-25 -5 -13 1 -16 29 -16 63 0 269 -30 357 -51 104 -26 190 -64 252 -112 l48
-37 60 123 c70 144 128 314 164 485 14 67 26 126 26 131 0 5 -28 29 -63 54
-95 68 -210 179 -277 269 -95 125 -180 321 -180 411 0 50 -17 35 -50 -41z"/>
<path d="M32170 59136 c-36 -19 -155 -64 -217 -82 -8 -2 1 -26 28 -68 42 -67
129 -251 129 -273 0 -7 4 -13 9 -13 25 0 87 242 98 382 3 43 4 78 2 78 -2 -1
-24 -11 -49 -24z"/>
<path d="M26706 59041 c-4 -5 7 -49 23 -98 47 -143 64 -274 59 -434 l-5 -139
26 7 c57 14 106 35 138 59 l33 25 0 -255 0 -256 -67 0 c-67 0 -136 -9 -241
-31 -49 -10 -54 -14 -77 -60 -14 -27 -55 -92 -91 -145 l-65 -97 91 7 c187 15
294 48 678 211 162 69 289 102 450 118 l122 11 0 243 0 242 -35 -24 c-67 -45
-130 -60 -255 -60 -132 0 -200 16 -276 67 -49 33 -94 96 -94 133 0 18 -5 20
-45 17 -79 -7 -113 5 -165 57 -68 68 -123 188 -170 369 -10 40 -23 52 -34 33z"/>
<path d="M61705 58883 c-10 -40 -48 -101 -105 -168 -70 -81 -109 -151 -116
-208 -4 -26 -8 -46 -10 -44 -2 2 -13 38 -23 80 -58 224 -167 313 -338 274 -38
-9 -95 -27 -126 -41 l-57 -25 0 -270 0 -271 395 0 395 0 0 350 c0 193 -2 350
-4 350 -2 0 -7 -12 -11 -27z"/>
<path d="M31093 58500 l2 -285 143 -3 142 -3 0 73 c0 40 -3 96 -6 125 -6 49
-8 52 -42 58 -49 9 -90 31 -130 69 -43 40 -69 90 -92 179 l-19 72 2 -285z"/>
<path d="M60698 58629 c-13 -7 -18 -22 -17 -52 l0 -42 15 39 c8 21 19 45 25
52 13 16 1 18 -23 3z"/>
<path d="M20026 58571 c-24 -27 -124 -69 -203 -87 -38 -8 -128 -17 -201 -21
l-133 -6 6 -31 c11 -52 82 -194 129 -254 24 -31 83 -95 132 -142 86 -82 98
-89 334 -209 135 -68 271 -141 302 -162 39 -26 70 -40 95 -41 37 -1 37 -1 6
-5 l-33 -4 30 -37 c38 -48 65 -112 80 -189 l13 -63 27 20 27 19 18 -33 19 -34
26 41 c34 53 121 135 180 170 72 42 173 76 283 95 l102 18 -101 7 c-259 17
-524 87 -737 193 -246 123 -456 331 -576 571 -17 34 -31 67 -31 73 0 6 26 10
61 10 73 0 116 22 150 76 24 39 21 54 -5 25z"/>
<path d="M28861 57805 c-53 -121 -166 -176 -391 -191 -77 -5 -111 -13 -178
-42 -45 -19 -85 -38 -87 -43 -3 -4 15 -52 39 -107 45 -101 81 -208 90 -274 5
-36 4 -38 -32 -44 -53 -9 -474 -164 -494 -182 -25 -21 -26 -137 -2 -146 9 -3
78 -47 154 -96 139 -91 251 -150 282 -150 9 0 19 -3 21 -7 3 -5 -75 -7 -174
-7 -98 1 -179 -1 -179 -5 0 -3 33 -16 73 -29 86 -27 168 -77 255 -155 54 -49
68 -57 102 -57 l40 0 0 -42 c0 -42 1 -43 63 -75 34 -18 98 -56 142 -85 l80
-53 -160 -6 c-88 -3 -220 -4 -292 -1 l-133 5 0 -131 0 -132 130 0 130 0 0
-546 0 -547 62 88 c77 107 218 258 301 321 113 86 284 154 384 154 l43 0 0
265 0 265 -125 0 -125 0 0 130 0 130 287 2 288 3 -80 51 c-94 60 -186 109
-385 204 -162 77 -247 129 -323 201 l-52 48 210 1 209 0 -72 35 c-40 19 -136
76 -214 126 -165 107 -240 144 -323 161 l-60 13 71 6 c70 7 121 26 159 59 24
22 439 177 497 186 l40 7 -6 47 c-9 66 -44 164 -108 305 -67 146 -106 250
-122 330 l-13 60 -22 -50z"/>
<path d="M25220 57464 c-8 -1 -50 -6 -93 -9 -43 -4 -77 -8 -75 -10 7 -8 505
-65 661 -77 l167 -12 0 -123 0 -123 74 0 c157 0 441 50 634 111 l92 30 0 54 0
55 -84 0 c-99 0 -195 9 -576 55 -157 19 -346 39 -419 45 -125 9 -346 12 -381
4z"/>
<path d="M21380 57308 c-69 -52 -200 -114 -355 -168 -66 -23 -154 -55 -195
-71 l-75 -28 3 -61 c11 -180 -47 -385 -208 -750 -100 -226 -130 -311 -136
-385 -9 -107 39 -157 173 -176 62 -9 171 -5 231 7 18 4 10 -9 -36 -53 -32 -32
-68 -76 -79 -98 -20 -39 -56 -146 -50 -151 1 -1 33 6 70 16 67 19 207 37 207
28 0 -3 -26 -27 -57 -53 -61 -50 -134 -132 -159 -177 l-15 -28 266 0 265 0 0
125 0 125 110 0 c97 0 111 2 116 18 22 68 80 165 118 199 l43 38 -141 0 c-126
0 -146 2 -186 22 -60 30 -80 65 -80 141 0 81 23 151 134 404 171 389 211 537
204 746 -5 140 -25 215 -82 316 l-32 56 -54 -42z"/>
<path d="M19892 57307 c-51 -81 -62 -124 -62 -240 l0 -111 28 26 c40 38 118
75 295 138 l157 56 -127 62 c-145 69 -225 102 -253 102 -10 0 -27 -14 -38 -33z"/>
<path d="M61118 55928 l-3 -1173 -52 -200 c-29 -110 -80 -297 -113 -415 -511
-1809 -1289 -3248 -2367 -4371 -71 -74 -178 -190 -238 -258 -1214 -1378 -2956
-2510 -4855 -3152 -420 -143 -828 -259 -906 -259 -167 0 -441 -50 -953 -175
-482 -117 -621 -144 -849 -161 -61 -4 -92 -10 -89 -18 2 -6 15 -10 28 -9 58 5
216 24 237 29 21 4 22 2 22 -62 0 -85 -26 -258 -50 -336 l-18 -60 40 -101
c137 -346 242 -752 302 -1177 90 -629 102 -1259 51 -2591 -9 -228 -19 -586
-22 -796 l-6 -383 86 0 c47 0 96 -4 110 -9 13 -5 66 -44 118 -85 88 -72 232
-156 267 -156 26 0 8 363 -44 895 -87 888 -99 1082 -91 1415 9 331 34 533 107
840 29 121 42 205 50 315 13 184 45 346 106 535 l46 145 -27 145 c-87 458
-223 867 -422 1260 -56 113 -103 206 -103 207 0 2 31 3 69 3 81 0 257 22 409
51 90 17 509 116 635 150 37 10 37 10 38 62 l0 52 15 -47 c8 -27 16 -48 19
-48 2 0 75 16 162 34 198 44 416 76 510 76 98 0 380 76 823 222 1388 457 2657
1141 3745 2019 453 364 915 806 1271 1214 43 50 136 150 207 224 1142 1190
1959 2758 2452 4706 l73 290 7 1163 7 1162 -401 0 -401 0 -2 -1172z"/>
<path d="M26966 56895 c-3 -9 -16 -20 -28 -25 -21 -8 -20 -9 10 -9 28 -1 32 2
32 24 0 28 -5 32 -14 10z"/>
<path d="M24690 56844 c0 -23 75 -139 122 -189 65 -70 139 -115 216 -130 l53
-11 -117 -79 c-199 -134 -354 -297 -424 -448 -30 -63 -31 -69 -24 -151 6 -80
8 -86 29 -86 37 0 134 -38 241 -94 l102 -54 76 78 77 78 -1 234 c0 128 -1 240
0 250 0 13 21 7 116 -34 64 -27 118 -47 121 -44 9 8 -26 206 -57 321 -32 122
-74 230 -121 311 l-30 54 -190 0 c-104 0 -189 -3 -189 -6z"/>
<path d="M27868 56513 c6 -2 18 -2 25 0 6 3 1 5 -13 5 -14 0 -19 -2 -12 -5z"/>
<path d="M26182 56416 c1 -52 6 -97 10 -101 5 -5 216 144 263 186 5 5 -54 9
-134 9 l-143 0 4 -94z"/>
<path d="M26530 56459 c154 -140 297 -242 438 -313 155 -78 383 -136 534 -136
l68 0 0 124 0 123 -40 6 c-31 4 -55 19 -111 70 -64 58 -170 127 -196 127 -5 0
-70 -45 -143 -100 -73 -55 -137 -100 -142 -100 -4 0 -8 56 -8 125 l0 125 -227
0 -228 -1 55 -50z"/>
<path d="M23092 56362 c-13 -27 -47 -72 -75 -100 -129 -127 -295 -146 -434
-51 l-43 30 0 -238 0 -238 123 123 122 122 150 0 149 0 44 -42 c39 -39 43 -41
38 -18 -3 14 -12 108 -21 210 -9 102 -20 200 -23 218 l-7 33 -23 -49z"/>
<path d="M23644 55943 c4 -32 13 -83 20 -113 l13 -55 12 69 c7 38 19 85 27
104 20 50 19 52 -32 52 l-47 0 7 -57z"/>
<path d="M31024 55928 c-55 -73 -97 -161 -113 -236 -20 -95 -23 -93 79 -58
l90 31 0 163 c0 89 -2 162 -4 162 -2 0 -26 -28 -52 -62z"/>
<path d="M34356 55935 c-53 -102 -140 -193 -289 -300 l-28 -20 25 -56 c59
-134 94 -306 103 -509 l6 -136 89 -22 c49 -12 175 -57 281 -101 225 -93 302
-119 376 -128 l54 -6 -6 239 c-9 354 -42 528 -135 708 -63 123 -196 259 -327
334 -49 29 -97 52 -105 52 -8 0 -28 -25 -44 -55z"/>
<path d="M23696 55698 c9 -29 38 -129 65 -223 28 -93 52 -177 55 -187 4 -14
14 -12 77 17 84 38 164 62 262 79 77 13 72 6 60 96 l-6 45 -157 87 c-156 87
-283 138 -341 138 l-30 0 15 -52z"/>
<path d="M32451 55739 c-230 -10 -234 -11 -303 -73 -106 -96 -241 -161 -583
-281 -191 -68 -328 -132 -381 -181 -24 -22 -31 -33 -19 -29 11 4 51 18 89 31
108 37 206 54 318 54 117 0 190 -16 290 -62 l67 -30 43 37 c61 53 214 123 433
201 105 36 230 84 278 105 106 46 235 130 297 193 l44 46 -199 -2 c-110 0
-278 -4 -374 -9z"/>
<path d="M22540 55553 l0 -143 -109 0 -108 0 -21 -55 c-42 -110 -142 -261
-250 -378 l-57 -62 395 -3 395 -2 38 42 c72 81 157 189 181 231 l25 42 -37
128 -38 128 -29 -31 c-38 -39 -104 -64 -151 -57 -79 13 -151 94 -205 231 l-28
71 -1 -142z"/>
<path d="M20090 55399 c0 -5 5 -7 10 -4 6 3 10 8 10 11 0 2 -4 4 -10 4 -5 0
-10 -5 -10 -11z"/>
<path d="M32223 55245 c-71 -13 -130 -30 -231 -67 l-52 -19 61 -45 c33 -25 98
-81 144 -125 l82 -79 38 65 c48 82 114 159 188 221 l58 49 -38 7 c-59 11 -170
8 -250 -7z"/>
<path d="M29805 55204 c-89 -19 -211 -78 -297 -143 -68 -52 -68 -52 -68 -101
l0 -50 48 0 c97 0 219 39 442 140 113 52 221 92 275 103 17 3 16 6 -10 16 -50
21 -207 51 -265 50 -30 0 -86 -7 -125 -15z"/>
<path d="M33330 54781 l0 -129 43 -51 c154 -180 414 -332 645 -377 160 -31
310 -4 390 69 l22 20 0 -120 0 -121 83 -39 c45 -21 168 -79 272 -130 l190 -92
3 -41 c8 -102 -72 -290 -165 -391 -68 -73 -83 -97 -83 -133 0 -23 4 -26 39
-26 21 0 60 4 87 9 147 28 241 96 298 214 59 121 67 183 73 541 l5 319 -35
-27 c-19 -15 -61 -36 -93 -47 -87 -31 -274 -23 -394 16 -106 34 -259 111 -347
176 -78 57 -220 194 -229 221 -3 11 -15 18 -29 18 -38 0 -178 47 -340 114
-235 98 -283 114 -392 130 l-43 6 0 -129z"/>
<path d="M21205 54869 c-52 -100 -68 -278 -39 -430 15 -82 88 -317 102 -331
11 -11 174 46 245 86 36 20 90 56 121 81 31 26 56 43 56 38 0 -4 -81 -89 -181
-189 l-181 -181 26 -72 c48 -134 69 -232 70 -326 0 -78 -4 -98 -28 -151 -35
-77 -61 -103 -268 -257 l-167 -124 50 -85 c28 -46 74 -111 104 -144 l53 -59
32 30 c42 40 170 191 236 282 82 110 167 249 233 380 l59 118 6 -40 c19 -114
45 -171 130 -276 l61 -75 69 50 c175 128 218 192 224 335 5 112 -20 206 -126
491 -44 118 -85 234 -91 258 -7 23 -15 40 -20 38 -13 -9 -114 20 -167 47 -106
54 -230 163 -434 382 -80 85 -148 155 -152 155 -4 0 -15 -14 -23 -31z m785
-839 l0 -220 -130 0 -131 0 7 38 c12 69 41 119 122 207 50 54 90 108 104 141
13 30 24 54 26 54 1 0 2 -99 2 -220z"/>
<path d="M23680 54896 c0 -3 20 -67 45 -143 47 -140 162 -390 192 -414 15 -13
16 -8 10 56 -7 91 -44 205 -119 371 -60 134 -60 134 -94 134 -19 0 -34 -2 -34
-4z"/>
<path d="M22541 54414 c13 -16 155 -87 165 -83 5 2 -32 24 -83 49 -50 25 -87
40 -82 34z"/>
<path d="M25141 54263 c480 -241 711 -619 736 -1198 8 -181 -4 -252 -63 -374
-38 -78 -60 -108 -132 -181 -95 -95 -192 -165 -321 -230 -96 -48 -232 -101
-309 -120 -52 -14 -53 -15 -106 -107 -30 -51 -51 -93 -46 -93 4 0 13 6 19 14
19 23 147 76 198 83 193 22 356 -167 444 -515 29 -115 54 -284 65 -444 l6 -88
252 0 253 0 6 -79 c6 -99 43 -186 100 -237 50 -46 93 -63 173 -71 l64 -6 -29
69 -30 69 39 3 c21 2 89 -8 151 -22 l113 -26 56 37 c80 53 163 142 156 168 -3
11 -6 37 -6 58 l0 37 -255 0 -255 0 0 65 c0 234 -80 593 -166 743 -23 40 -27
42 -70 42 l-45 0 27 24 c28 23 28 24 10 50 -20 32 -94 86 -139 103 -115 42
-266 -12 -409 -145 l-48 -45 0 137 0 136 34 0 c110 0 346 70 523 155 l111 54
-42 113 c-60 160 -69 197 -65 280 6 101 50 189 232 460 80 119 162 247 183
284 l37 67 -18 52 c-10 29 -21 58 -25 65 -5 8 -57 -13 -177 -74 -221 -112
-310 -170 -410 -272 l-83 -83 0 533 0 533 -25 11 c-18 9 -142 12 -417 12
l-392 0 95 -47z"/>
<path d="M22754 54162 c-12 -20 -58 -76 -102 -124 -79 -86 -112 -147 -112
-205 0 -44 28 -23 98 75 110 153 144 214 140 256 l-3 36 -21 -38z"/>
<path d="M32960 54167 c-189 -64 -319 -210 -425 -475 -46 -113 -51 -132 -37
-132 4 0 133 54 287 120 154 66 283 120 287 120 4 0 8 -134 8 -297 l0 -298
118 -118 c75 -77 108 -116 92 -111 -14 5 -66 9 -115 9 -83 0 -96 -3 -159 -34
-120 -59 -241 -197 -305 -348 -57 -134 -73 -274 -46 -391 20 -82 47 -134 102
-193 59 -63 123 -103 213 -134 97 -33 100 -33 100 14 0 34 8 48 68 114 80 88
135 186 162 289 l19 73 0 -364 c1 -287 4 -362 14 -358 107 47 138 57 189 57
133 0 197 -71 198 -219 0 -73 1 -76 43 -130 24 -31 68 -92 99 -136 74 -105
130 -169 183 -205 57 -39 153 -64 214 -55 41 5 134 31 153 42 4 2 -12 27 -35
56 -99 122 -164 288 -192 490 -6 44 -8 47 -36 47 l-29 0 0 357 c0 196 -3 354
-6 350 -4 -3 -16 -34 -28 -69 -31 -87 -70 -151 -138 -223 -59 -63 -78 -98 -78
-141 0 -13 -2 -24 -4 -24 -2 0 -35 9 -72 21 -155 47 -258 131 -316 256 -28 59
-32 80 -36 175 -6 134 12 216 73 343 97 201 261 336 427 351 35 4 81 2 103 -5
38 -10 36 -8 -73 102 l-112 112 0 293 c0 160 -3 292 -6 292 -3 0 -133 -55
-290 -122 -156 -67 -286 -119 -289 -116 -10 9 34 128 90 243 52 109 148 245
186 265 10 6 19 14 19 19 0 12 -157 67 -260 91 -120 28 -273 27 -360 -3z"/>
<path d="M26838 54044 c62 -16 155 -53 297 -118 l100 -46 3 -41 c3 -32 7 -39
18 -35 9 3 55 6 102 7 l87 0 -100 32 -100 33 -3 92 -3 92 -227 -1 c-216 0
-224 -1 -174 -15z"/>
<path d="M28057 54035 c-11 -8 -17 -23 -15 -36 3 -19 5 -18 20 14 10 21 17 37
15 37 -1 0 -10 -7 -20 -15z"/>
<path d="M27870 53915 c-44 -25 -181 -66 -290 -85 -81 -14 -95 -19 -60 -19 45
-1 45 -2 23 -19 -12 -9 -36 -48 -53 -86 -40 -90 -128 -247 -207 -369 -71 -110
-72 -108 52 -62 233 86 434 254 589 490 85 129 84 121 30 144 -55 25 -52 24
-84 6z"/>
<path d="M26702 53781 c-8 -4 -12 -19 -10 -32 3 -22 4 -22 15 9 7 17 11 32 10
32 -1 0 -8 -4 -15 -9z"/>
<path d="M23106 53398 c-86 -176 -98 -305 -40 -422 15 -32 35 -61 44 -64 8 -3
28 -14 44 -26 29 -19 29 -19 22 0 -32 79 -78 233 -83 274 l-6 50 74 -49 c79
-52 201 -116 285 -150 l51 -20 13 27 c6 15 40 70 75 123 l63 97 -101 43 c-136
57 -250 114 -317 158 -30 20 -60 40 -67 44 -9 5 -26 -21 -57 -85z"/>
<path d="M23910 53097 c0 -9 68 -202 87 -246 19 -43 21 -44 142 -93 68 -27
125 -47 127 -46 9 10 -119 180 -185 246 -69 68 -171 151 -171 139z"/>
<path d="M22728 53039 c-52 -90 -52 -84 4 -80 l50 3 -6 45 c-10 75 -19 81 -48
32z"/>
<path d="M22204 52983 c-45 -57 -46 -60 -15 -55 15 2 44 -1 64 -6 21 -6 37 -9
37 -8 0 2 -13 26 -28 54 l-29 52 -29 -37z"/>
<path d="M26661 52930 c-6 -30 -7 -58 -3 -67 6 -10 11 5 15 48 9 78 3 87 -12
19z"/>
<path d="M28674 52947 c-2 -7 0 -59 5 -114 12 -131 29 -163 152 -289 96 -97
99 -101 99 -146 0 -58 25 -202 51 -298 64 -230 227 -539 406 -772 l44 -58
-125 0 -126 0 -121 163 c-107 143 -358 417 -381 417 -5 0 -8 -130 -8 -289 l0
-290 53 -10 c53 -12 179 -61 367 -146 115 -52 268 -95 336 -95 l44 0 0 420 c0
231 4 420 8 420 25 0 288 -291 392 -432 l115 -157 118 -1 119 0 -36 48 c-150
198 -323 509 -380 685 -17 51 -34 87 -42 87 -7 0 -68 18 -135 40 -354 116
-548 269 -645 508 -26 64 -54 210 -54 278 l0 44 -125 0 c-95 0 -127 -3 -131
-13z"/>
<path d="M22890 52900 c-95 -35 -224 -131 -313 -235 l-46 -52 26 -81 25 -81
-63 -93 c-35 -51 -103 -134 -151 -184 l-88 -92 0 -111 c0 -107 1 -111 21 -111
21 0 22 -2 16 -132 -3 -80 -11 -153 -21 -183 -10 -32 -16 -85 -16 -145 l1 -95
28 71 c88 224 205 276 399 178 42 -21 80 -40 83 -42 3 -1 9 22 12 51 14 137
99 210 260 225 55 5 57 6 57 33 l0 29 -297 1 c-203 1 -284 4 -253 10 199 39
322 90 451 189 87 65 221 207 288 304 l53 78 -68 171 c-67 169 -68 171 -137
236 -38 36 -76 69 -85 73 -33 13 -128 7 -182 -12z"/>
<path d="M22320 52885 c36 -41 84 -84 93 -85 4 0 7 6 7 14 0 15 -57 64 -100
86 l-25 13 25 -28z"/>
<path d="M26956 52792 c-21 -77 -21 -92 4 -92 18 0 20 7 20 75 0 41 -2 75 -4
75 -2 0 -11 -26 -20 -58z"/>
<path d="M34705 52760 c-33 -4 -93 -13 -134 -20 l-75 -12 115 -34 c63 -18 189
-60 280 -93 289 -104 413 -136 561 -146 46 -4 85 -10 88 -15 3 -4 192 -269
420 -589 l414 -581 394 0 c216 0 392 4 390 8 -1 5 -190 270 -418 589 l-414
580 -96 6 c-122 8 -273 47 -524 136 -304 109 -448 147 -636 170 -92 12 -271
12 -365 1z"/>
<path d="M24184 52443 c-21 -4 -21 -4 -4 -57 10 -28 24 -78 31 -110 l13 -59
18 54 c11 30 22 82 25 117 l6 62 -34 -1 c-19 -1 -43 -4 -55 -6z"/>
<path d="M27190 52422 c-76 -49 -133 -109 -126 -129 33 -84 32 -219 -1 -293
-11 -25 -39 -67 -63 -93 -38 -43 -40 -47 -19 -43 13 3 46 8 73 11 72 10 179
47 343 121 81 37 170 74 196 83 l48 17 -43 83 c-74 145 -201 251 -318 267 -39
5 -51 1 -90 -24z"/>
<path d="M34660 52435 c-8 -9 -8 -15 -2 -15 12 0 26 19 19 26 -2 2 -10 -2 -17
-11z"/>
<path d="M21456 52281 c-43 -32 -118 -82 -167 -111 -49 -29 -87 -55 -86 -57
10 -9 166 -33 218 -33 l59 0 0 33 c0 41 21 119 48 180 11 26 18 47 14 46 -4 0
-42 -27 -86 -58z"/>
<path d="M27667 51865 c-4 -11 -29 -58 -56 -104 -45 -76 -72 -154 -58 -168 10
-10 59 51 83 103 25 52 48 156 41 177 -2 7 -7 3 -10 -8z"/>
<path d="M23780 51771 c-43 -13 -84 -38 -113 -68 l-27 -29 112 -32 c62 -17
129 -32 148 -34 34 -3 34 -3 42 45 3 27 14 67 22 88 l16 39 -88 -1 c-48 0 -98
-4 -112 -8z"/>
<path d="M32645 51690 c-33 -11 -82 -34 -110 -52 l-50 -33 -3 -168 -2 -168 35
-15 c190 -79 368 3 407 188 30 145 -56 270 -187 267 -16 0 -57 -9 -90 -19z"/>
<path d="M34990 51659 c0 -54 34 -240 57 -313 33 -107 92 -219 149 -283 64
-75 79 -71 100 23 38 173 1 325 -107 440 -48 50 -178 154 -193 154 -3 0 -6
-10 -6 -21z"/>
<path d="M36118 51241 c4 -26 -7 -114 -24 -198 l-6 -33 121 0 121 0 0 130 0
130 -108 0 -109 0 5 -29z"/>
<path d="M27875 51175 c154 -307 119 -609 -99 -852 l-46 -51 27 -58 c33 -71
38 -165 11 -205 l-16 -24 164 -165 164 -165 -121 -140 c-66 -77 -123 -145
-125 -152 -3 -6 42 -75 100 -152 l106 -140 0 -138 0 -138 -130 130 -129 129
-3 123 -3 123 -102 -120 -103 -121 0 -251 c0 -234 -1 -250 -17 -243 -64 28
-184 55 -239 55 -140 0 -212 -68 -234 -218 -17 -122 9 -281 82 -499 40 -121
40 -123 24 -163 -25 -62 -21 -112 10 -141 30 -27 54 -77 54 -112 0 -17 23 -46
78 -98 92 -88 210 -173 198 -143 -44 105 -52 252 -22 387 l17 77 137 -1 137 0
48 -57 c26 -31 62 -86 80 -122 27 -55 32 -77 35 -150 3 -79 1 -88 -28 -137
-22 -38 -45 -61 -83 -83 -47 -28 -59 -31 -128 -28 -63 3 -82 8 -118 31 l-42
28 -47 -30 c-81 -51 -142 -131 -142 -183 0 -24 6 -29 49 -42 138 -41 328 -66
504 -66 64 0 117 -3 117 -7 0 -4 -55 -63 -122 -130 l-123 -123 125 0 125 0
195 -156 c107 -85 238 -198 290 -250 l95 -94 124 124 123 124 -55 43 c-31 24
-131 91 -224 148 -211 131 -288 187 -355 260 -116 125 -98 236 56 348 l64 46
-52 35 c-159 109 -273 222 -314 311 -29 64 -33 146 -10 201 14 33 13 40 -15
115 -85 235 -117 463 -82 592 44 163 181 209 403 137 40 -13 75 -24 77 -24 3
0 5 113 5 250 l0 250 251 293 251 292 -96 3 c-110 3 -111 4 -74 91 l21 53
-179 180 -179 180 29 21 c123 91 158 122 207 181 65 76 120 181 145 276 35
134 14 339 -50 474 l-24 51 -1 -77 c-1 -89 5 -84 -101 -68 -94 15 -205 53
-375 130 -168 76 -269 110 -325 110 l-37 0 42 -85z"/>
<path d="M35530 51105 l0 -95 213 1 212 0 -77 19 c-98 24 -192 67 -274 125
-36 25 -67 45 -69 45 -3 0 -5 -43 -5 -95z"/>
<path d="M36419 50972 c24 -20 95 -76 159 -123 l115 -87 196 -4 c167 -4 205
-8 253 -26 183 -67 272 -212 293 -479 l7 -93 -50 0 -50 0 50 -84 50 -83 161
-43 c215 -56 396 -115 483 -156 76 -36 194 -117 194 -134 0 -6 -105 -10 -295
-10 l-295 0 0 -119 0 -119 48 -6 c242 -33 409 -147 685 -468 56 -65 103 -114
105 -108 6 18 -18 249 -34 329 -22 108 -57 221 -129 416 -61 164 -70 194 -95
316 -23 115 -158 317 -329 492 -122 126 -211 198 -481 397 -107 78 -217 162
-244 186 l-48 44 -397 0 -396 0 44 -38z"/>
<path d="M24507 50921 c-23 -65 -103 -152 -195 -211 -77 -49 -82 -59 -82 -165
0 -44 -10 -67 -95 -216 -52 -92 -95 -170 -95 -173 0 -3 8 -6 18 -6 34 0 128
-52 198 -109 91 -75 141 -108 179 -117 l30 -7 -37 41 c-95 106 -119 222 -65
315 35 59 123 126 260 197 l98 52 -32 36 c-82 93 -140 223 -156 351 l-8 62
-18 -50z"/>
<path d="M25630 50755 c0 -4 54 -133 121 -288 67 -155 123 -288 126 -294 4 -9
-7 -13 -34 -13 l-40 0 14 -52 c7 -29 16 -84 20 -122 l6 -69 71 6 c96 8 179 35
391 129 164 73 297 118 347 118 11 0 18 4 16 9 -1 4 -37 87 -77 182 l-75 174
-135 38 c-75 20 -219 61 -321 91 -222 65 -430 109 -430 91z"/>
<path d="M35530 50699 l0 -61 63 7 c155 16 315 52 422 94 l50 20 -267 1 -268
0 0 -61z"/>
<path d="M36080 50744 c0 -52 -56 -230 -101 -322 -85 -176 -210 -280 -379
-318 l-70 -16 0 -89 c0 -82 -1 -89 -20 -89 -19 0 -20 -7 -20 -128 l0 -129
-112 -7 c-102 -5 -292 -37 -305 -50 -11 -10 8 -56 40 -98 19 -25 53 -53 82
-68 45 -22 64 -25 193 -28 l142 -4 -32 -61 c-19 -37 -61 -90 -104 -133 l-73
-72 97 -25 c154 -41 219 -50 347 -50 194 0 319 45 431 157 50 50 124 155 124
176 0 3 -60 6 -132 6 -117 0 -139 2 -183 22 -63 29 -91 55 -121 114 -36 72
-54 151 -61 276 l-6 112 256 0 257 0 0 83 0 82 -93 35 -92 35 93 3 92 3 0 284
0 284 -38 10 c-20 6 -77 14 -125 17 -81 6 -87 6 -87 -12z"/>
<path d="M35205 50729 c-63 -24 -229 -66 -320 -79 -38 -6 -214 -15 -390 -20
-340 -9 -386 -15 -484 -65 -97 -49 -261 -242 -372 -440 -34 -60 -87 -154 -118
-209 -31 -54 -86 -136 -123 -183 l-68 -84 0 -193 c0 -222 -10 -273 -63 -324
-19 -18 -56 -41 -83 -52 l-49 -20 395 3 c440 4 467 7 527 69 37 38 63 95 63
137 0 26 -8 33 -77 69 -126 66 -124 61 -67 110 27 23 73 54 101 69 l53 28 0
57 c0 56 2 60 68 141 37 47 77 103 89 125 l23 40 -48 -5 c-211 -20 -424 -91
-604 -201 l-68 -41 0 68 c0 71 28 198 55 250 64 125 200 182 398 167 50 -4
153 -16 230 -26 77 -11 141 -19 142 -17 2 1 28 44 60 95 108 176 261 344 350
383 74 33 172 49 302 49 l122 0 10 38 c23 96 26 93 -54 61z"/>
<path d="M29938 50433 c-86 -110 -108 -140 -200 -277 -48 -72 -85 -133 -83
-137 3 -3 38 -23 79 -43 71 -35 193 -66 262 -66 l34 0 0 -420 c0 -247 4 -420
9 -420 22 0 172 123 246 201 44 47 130 150 190 229 139 183 213 261 286 307
53 32 59 39 59 69 l0 34 -52 0 c-139 1 -283 65 -393 175 -38 38 -113 133 -165
210 -63 91 -110 149 -135 167 -72 48 -77 47 -137 -29z"/>
<path d="M24611 50036 c-68 -68 -118 -125 -111 -128 7 -2 -82 -44 -198 -93
-154 -66 -208 -93 -200 -102 22 -27 106 -44 246 -50 l142 -6 0 -79 c0 -64 4
-82 19 -97 22 -22 149 -65 224 -76 l47 -7 0 -143 0 -143 33 -11 c41 -13 152
-31 195 -31 l33 0 -1 148 c-1 81 -1 155 0 166 0 17 5 18 52 12 120 -16 314
-117 428 -223 l60 -55 0 139 0 140 -59 6 c-68 7 -161 39 -297 103 -202 94
-361 144 -461 144 -23 0 -33 4 -27 9 5 6 134 63 287 129 l279 119 -44 8 c-23
4 -65 6 -93 4 -27 -1 -68 -3 -90 -3 l-40 -1 -6 73 c-6 80 -9 84 -94 127 -47
23 -133 45 -179 45 -14 0 -64 -43 -145 -124z"/>
<path d="M34635 50126 c-83 -26 -86 -35 -10 -36 83 0 185 15 229 35 29 12 24
13 -74 14 -58 0 -123 -6 -145 -13z"/>
<path d="M34411 49865 c-6 -25 -14 -79 -18 -121 l-6 -77 44 27 c24 15 92 51
151 79 l107 52 1 43 0 42 -134 0 -134 0 -11 -45z"/>
<path d="M25840 49230 l0 -170 -105 0 -106 0 25 -42 c14 -24 30 -65 37 -93 6
-27 13 -52 15 -53 1 -2 106 42 233 97 128 56 234 101 236 101 3 0 5 -112 5
-250 0 -170 3 -250 11 -250 8 0 43 15 56 24 8 6 38 201 56 365 l23 203 -32 28
c-92 80 -243 160 -360 190 -42 11 -81 20 -86 20 -4 0 -8 -76 -8 -170z"/>
<path d="M27120 49064 l-13 -126 67 -66 66 -67 0 126 0 126 -47 66 c-27 37
-51 67 -54 67 -3 0 -12 -57 -19 -126z"/>
<path d="M25200 48990 l-155 -69 -43 -73 c-28 -47 -82 -112 -150 -180 -119
-120 -120 -118 24 -93 115 20 209 47 367 103 l127 46 0 168 c0 92 -3 168 -7
167 -5 0 -78 -31 -163 -69z"/>
<path d="M32222 48988 c-7 -38 -41 -145 -76 -237 -69 -181 -97 -263 -121 -358
-19 -76 -45 -253 -45 -309 l0 -41 78 4 c52 3 93 -1 127 -11 l50 -16 145 145
145 145 120 -160 120 -161 12 128 c10 106 51 330 69 376 3 10 -321 311 -577
535 l-35 31 -12 -71z"/>
<path d="M33920 49030 c0 -68 -45 -159 -190 -384 l-83 -129 74 -66 c41 -36 92
-82 113 -102 l39 -36 48 99 c84 172 185 302 255 328 51 20 85 12 123 -28 42
-44 67 -116 81 -230 7 -65 20 -109 20 -71 0 28 59 138 147 275 50 76 102 162
116 189 25 50 57 147 57 172 0 11 -76 13 -400 13 l-400 0 0 -30z"/>
<path d="M38703 48928 c-138 -102 -161 -123 -153 -138 5 -10 72 -81 147 -158
135 -137 239 -222 338 -277 48 -27 46 -23 -57 81 l-108 109 -2 251 -3 252
-162 -120z"/>
<path d="M35517 48803 c-27 -9 -71 -36 -97 -60 -83 -75 -123 -185 -155 -428
-16 -121 -16 -137 -1 -224 23 -135 24 -131 -26 -131 -43 0 -43 -1 -67 -58 -17
-39 -46 -78 -93 -124 l-68 -68 119 0 c66 0 122 4 125 9 3 4 11 60 17 123 l12
116 87 11 c126 16 222 44 435 126 105 40 200 76 212 79 l22 7 -18 52 c-10 29
-48 118 -85 200 -78 175 -106 254 -113 323 l-6 52 -45 6 c-80 11 -205 5 -255
-11z"/>
<path d="M33410 48743 c0 -8 49 -57 114 -113 l28 -25 -16 40 c-9 22 -29 52
-44 67 -27 27 -82 48 -82 31z"/>
<path d="M71988 48686 c-14 -10 -18 -28 -18 -72 0 -63 -26 -306 -36 -338 -6
-19 -1 -19 127 -12 74 4 167 12 207 19 l73 12 -52 40 c-65 51 -162 171 -225
280 -27 46 -51 84 -54 84 -3 0 -13 -6 -22 -13z"/>
<path d="M29506 48349 c-73 -17 -178 -81 -251 -154 -162 -160 -216 -341 -136
-451 25 -36 30 -38 82 -39 30 -1 96 -12 146 -25 l92 -24 77 38 c251 124 356
439 201 600 -58 61 -119 76 -211 55z"/>
<path d="M31579 48154 l-145 -145 -39 17 c-59 25 -177 23 -238 -4 -106 -47
-196 -138 -255 -259 -20 -41 -31 -53 -49 -53 -23 0 -23 -1 -23 -130 l0 -130
68 0 68 0 66 64 c125 123 334 196 558 196 42 0 79 3 83 6 11 12 -60 139 -108
192 l-47 52 161 0 160 0 46 31 c28 19 43 35 38 42 -7 12 -180 246 -192 259 -4
4 -72 -58 -152 -138z"/>
<path d="M36925 48193 c-55 -7 -138 -34 -315 -103 -96 -37 -194 -73 -216 -79
l-41 -11 8 -43 c4 -24 11 -92 14 -153 9 -136 -5 -218 -80 -488 -31 -109 -54
-199 -53 -200 2 -1 41 -14 88 -30 99 -34 213 -89 289 -140 29 -20 56 -36 60
-36 4 0 46 58 94 128 47 71 93 135 102 142 13 11 15 -15 15 -245 0 -225 2
-261 17 -286 10 -16 20 -29 23 -29 3 0 11 42 18 93 18 128 53 281 132 572 38
138 74 278 81 313 15 82 6 325 -16 407 -37 139 -110 201 -220 188z"/>
<path d="M23872 48130 c-14 -66 -58 -181 -150 -390 -77 -174 -86 -217 -79
-395 4 -82 11 -177 16 -210 17 -98 43 -205 52 -205 13 0 116 161 153 240 20
41 42 100 50 130 14 52 15 43 15 -195 l1 -250 -51 -40 c-28 -22 -60 -47 -71
-55 -20 -16 -19 -17 29 -80 l49 -65 109 4 c61 1 112 5 114 7 8 7 -83 148 -123
190 l-43 44 130 0 129 0 -6 38 c-23 124 -66 290 -140 537 -115 386 -153 547
-168 725 -3 30 -5 26 -16 -30z"/>
<path d="M25685 47999 c-53 -17 -218 -39 -287 -39 l-68 0 0 -208 0 -209 103
-85 c56 -47 210 -190 342 -319 215 -209 371 -349 389 -349 3 0 6 84 6 187 0
160 -2 189 -17 205 -9 10 -14 20 -12 21 2 2 38 24 79 50 41 25 88 57 104 70
l29 23 -80 70 c-116 100 -227 177 -339 236 -55 28 -101 53 -103 55 -3 2 19 28
49 58 l54 55 -55 22 c-30 12 -99 44 -154 71 l-100 49 49 18 c70 27 78 40 11
19z"/>
<path d="M32375 47908 c83 -94 134 -227 150 -390 l7 -68 -365 0 -366 0 -25
-33 c-33 -43 -44 -75 -52 -150 l-6 -64 74 -155 c167 -346 323 -570 582 -835
l109 -113 -51 0 c-89 0 -279 29 -364 56 -100 32 -198 80 -262 129 -26 20 -50
35 -52 33 -7 -7 78 -283 127 -415 27 -72 49 -136 49 -141 0 -8 -102 -50 -187
-76 -23 -7 -23 -8 -23 -219 l0 -212 123 123 c67 67 126 122 130 122 4 0 7
-176 7 -390 l0 -390 24 -10 c84 -32 486 -59 669 -45 l97 7 0 411 0 412 -125
-125 -125 -125 0 558 0 558 56 -46 c31 -25 84 -61 118 -79 125 -71 345 -126
499 -126 l69 0 -112 118 c-255 266 -430 524 -581 855 -50 109 -51 113 -47 187
5 75 22 125 58 165 20 22 174 430 186 489 l6 36 -222 0 -222 0 47 -52z"/>
<path d="M60550 47885 c-80 -66 -213 -153 -496 -325 -242 -148 -422 -268 -456
-306 -9 -11 -19 -31 -23 -45 -6 -24 0 -29 62 -67 37 -22 131 -83 208 -136 77
-52 141 -94 142 -92 1 1 -29 106 -67 234 -39 127 -70 235 -70 239 0 4 24 -37
53 -92 100 -189 234 -381 381 -547 76 -85 81 -88 229 -162 161 -80 331 -142
485 -176 113 -25 322 -50 414 -50 l68 0 0 -846 0 -847 108 6 c116 6 217 32
273 70 l34 23 3 682 2 682 -62 31 c-341 170 -676 454 -916 776 l-76 102 -29
-21 c-16 -11 -31 -26 -34 -33 -3 -10 80 -308 104 -372 4 -10 -24 -13 -144 -13
-220 0 -293 24 -344 113 -23 40 -24 51 -27 272 l-3 230 29 85 c19 55 27 97 24
118 -3 26 1 39 21 60 16 18 47 95 95 240 39 116 70 212 69 212 -1 0 -27 -20
-57 -45z"/>
<path d="M29887 47602 l-98 -99 83 -21 c46 -11 100 -23 121 -26 l37 -5 0 125
c0 122 0 124 -23 124 -15 0 -54 -32 -120 -98z"/>
<path d="M61740 47650 c-207 -35 -385 -97 -475 -165 -29 -23 -35 -34 -35 -64
0 -52 38 -124 117 -221 80 -99 108 -153 124 -243 l12 -65 87 87 c48 47 141
127 208 176 l122 90 0 213 0 212 -27 -1 c-16 0 -75 -9 -133 -19z"/>
<path d="M30300 47566 c-100 -73 -176 -183 -219 -315 -12 -35 -21 -68 -21 -72
0 -4 19 -1 43 6 60 17 137 26 137 16 0 -5 -52 -130 -115 -277 -63 -147 -113
-269 -112 -270 1 -2 31 17 66 41 145 101 330 151 634 171 l98 6 -7 31 c-16 75
-79 281 -120 392 -25 66 -48 128 -51 138 -5 15 3 17 63 18 l69 0 -75 20 c-84
22 -137 41 -258 93 -46 20 -84 36 -85 36 -1 0 -22 -15 -47 -34z"/>
<path d="M27052 47268 c-97 -67 -102 -72 -86 -89 28 -31 52 -33 94 -5 40 26
83 89 94 139 4 15 5 27 4 26 -2 0 -49 -33 -106 -71z"/>
<path d="M25370 46647 l0 -547 358 -1 357 0 -57 -18 c-68 -22 -134 -58 -287
-158 -133 -87 -206 -125 -280 -147 -97 -29 -91 -39 -91 151 l0 168 -149 -150
-150 -150 6 -143 6 -144 91 7 c220 16 392 70 544 171 83 56 422 374 422 396 0
6 -55 67 -121 136 -259 270 -433 522 -580 840 -32 68 -60 126 -63 130 -3 3 -6
-241 -6 -541z"/>
<path d="M37629 47110 c-25 -36 -91 -132 -146 -215 -146 -218 -223 -320 -310
-408 -82 -82 -172 -137 -226 -137 l-30 0 7 126 c6 117 5 125 -11 122 -16 -3
-18 -19 -21 -166 -1 -93 1 -162 7 -162 18 0 178 49 225 70 27 11 51 18 54 15
4 -3 -50 -62 -118 -130 l-125 -125 115 -1 c114 -2 114 -2 40 -9 -178 -17 -182
-19 -306 -143 l-112 -112 -16 -72 -16 -73 92 -139 93 -140 54 -7 c30 -4 88 -2
129 4 70 10 78 13 123 58 l49 48 28 -27 28 -27 70 29 c132 55 124 48 124 105
0 70 17 170 41 241 48 147 158 225 354 254 58 8 57 9 -42 10 l-103 1 -2 537
-3 538 -46 -65z"/>
<path d="M26279 46992 c142 -284 289 -497 491 -712 l70 -75 70 75 70 75 1
-300 c0 -225 3 -292 11 -270 6 17 55 143 108 280 107 275 132 347 155 449 22
93 18 95 -145 96 l-124 0 44 45 c26 27 40 48 35 53 -6 5 -39 29 -75 54 -36 25
-86 63 -112 85 -41 33 -60 41 -125 52 -162 27 -353 103 -486 193 l-58 39 70
-139z"/>
<path d="M29275 46990 c-130 -131 -131 -134 -18 -110 l48 11 47 109 c25 61 45
110 44 110 -1 0 -55 -54 -121 -120z"/>
<path d="M24480 46875 c-11 -13 -9 -15 15 -15 16 0 25 5 23 12 -7 19 -24 20
-38 3z"/>
<path d="M36190 46380 c-34 -11 -46 -18 -32 -19 24 -1 92 24 92 33 0 4 -1 6
-2 5 -2 0 -28 -8 -58 -19z"/>
<path d="M36330 46335 c-29 -11 -32 -14 -17 -20 13 -5 25 -1 40 14 24 24 24
24 -23 6z"/>
<path d="M27493 46033 c-195 -213 -364 -381 -459 -456 -30 -23 -54 -47 -54
-54 0 -10 84 -13 400 -13 l400 0 0 318 0 318 -49 48 -48 47 -190 -208z"/>
<path d="M26311 46078 c-5 -13 -32 -82 -60 -155 -28 -73 -51 -138 -51 -144 0
-17 63 -3 136 31 99 45 331 200 370 248 l35 42 -211 0 c-209 0 -211 0 -219
-22z"/>
<path d="M30962 45928 c-28 -68 -63 -153 -77 -191 l-25 -67 28 6 c44 11 226
75 233 82 6 6 -91 275 -103 287 -3 3 -28 -50 -56 -117z"/>
<path d="M53437 45999 c-4 -13 -7 -48 -7 -77 -1 -254 -100 -663 -244 -1000
-31 -72 -56 -134 -56 -137 0 -3 52 -117 116 -253 407 -866 538 -1284 546
-1749 2 -79 3 -143 4 -143 1 0 16 30 35 68 51 101 152 199 259 250 121 57 276
91 418 92 59 0 62 1 58 23 -3 12 -15 72 -27 132 -66 342 -183 652 -507 1340
-334 713 -456 1012 -561 1381 -22 77 -29 93 -34 73z"/>
<path d="M49985 45739 c-217 -27 -441 -47 -680 -61 l-210 -13 190 -3 c192 -4
831 15 873 25 17 4 22 12 22 39 0 40 16 39 -195 13z"/>
<path d="M57018 45753 c57 -2 147 -2 200 0 53 1 7 3 -103 3 -110 0 -154 -2
-97 -3z"/>
<path d="M38479 45704 c-109 -91 -278 -189 -411 -239 -27 -10 -48 -19 -48 -20
0 -12 210 -392 248 -448 28 -41 48 -78 45 -81 -4 -3 -40 -6 -82 -6 -78 0 -237
-22 -304 -42 -46 -14 -47 -8 29 -201 30 -75 60 -159 66 -186 l11 -49 116 105
c137 124 208 177 322 237 155 82 324 127 536 142 l101 7 -53 81 c-29 44 -94
160 -145 256 -50 96 -115 208 -143 249 -50 72 -180 211 -216 231 -14 7 -30 -1
-72 -36z"/>
<path d="M57415 45744 c39 -2 174 -8 300 -14 443 -21 869 -58 1210 -106 186
-26 512 -84 600 -106 57 -15 52 -1 80 -218 47 -369 46 -734 -5 -1450 -46 -648
-55 -903 -41 -1155 24 -409 96 -728 223 -990 l43 -89 3 972 2 972 273 0 273 0
23 338 c32 472 40 762 30 1017 -8 208 -40 521 -59 569 -7 20 -28 26 -197 59
-645 127 -1434 193 -2383 201 -245 2 -413 2 -375 0z"/>
<path d="M24740 45585 c-30 -13 -63 -24 -73 -25 -15 0 -8 -15 34 -75 78 -113
155 -180 235 -205 36 -11 82 -20 100 -20 l35 0 -3 122 -3 122 -120 52 c-66 29
-127 53 -135 52 -8 0 -40 -10 -70 -23z"/>
<path d="M30840 45506 c0 -2 7 -9 15 -16 12 -10 15 -10 15 4 0 9 -7 16 -15 16
-8 0 -15 -2 -15 -4z"/>
<path d="M28080 45406 l0 -94 63 20 c48 16 98 22 217 25 174 5 287 -12 440
-66 l80 -28 0 118 0 119 -400 0 -400 0 0 -94z"/>
<path d="M34115 45449 c-69 -220 14 -419 237 -571 76 -51 219 -119 320 -152
l78 -25 70 39 c38 22 73 40 77 40 4 0 14 4 22 9 33 21 -128 239 -300 407 -169
164 -350 284 -451 300 l-37 6 -16 -53z"/>
<path d="M36264 45368 c-23 -35 -45 -69 -49 -76 -4 -8 15 -39 49 -80 30 -38
60 -80 65 -96 6 -15 11 -68 11 -117 l0 -89 -38 0 c-22 0 -73 -3 -114 -6 l-75
-7 4 -61 c2 -33 6 -85 9 -113 l5 -53 106 0 105 0 -6 -47 c-11 -75 -34 -150
-79 -252 l-41 -94 38 -154 c21 -84 40 -153 42 -153 2 0 68 43 147 95 l142 95
3 -36 c3 -36 4 -36 40 -29 75 15 200 20 306 13 60 -5 111 -6 114 -3 2 2 -19
98 -47 212 -63 258 -80 357 -88 504 -7 134 7 245 43 351 13 39 24 73 24 75 0
2 -78 3 -172 3 l-172 0 -61 60 c-56 55 -67 62 -160 90 -55 16 -102 30 -105 30
-3 0 -24 -28 -46 -62z"/>
<path d="M27417 45345 c-96 -18 -184 -55 -259 -108 -32 -22 -58 -41 -58 -42 0
-1 24 6 53 16 66 22 153 36 278 45 l96 7 12 -88 c16 -114 43 -198 122 -374
l64 -144 6 124 c9 169 38 257 120 365 22 28 64 68 94 90 30 21 54 42 55 45 0
8 -90 35 -180 55 -106 22 -306 27 -403 9z"/>
<path d="M26944 44895 c-5 -11 -9 -77 -9 -147 0 -69 0 -126 -1 -125 -1 1 -27
61 -59 132 -31 72 -60 133 -64 137 -23 24 -511 -157 -511 -190 0 -16 114 -116
187 -165 37 -24 100 -62 138 -82 39 -21 59 -35 45 -31 -63 15 -189 18 -260 5
l-75 -14 48 -3 c27 -2 47 -7 45 -11 -7 -17 -126 -116 -196 -162 -103 -67 -166
-89 -261 -89 -130 0 -129 -24 8 -153 89 -84 137 -109 222 -115 123 -9 196 30
449 238 319 262 457 326 689 318 l107 -3 -73 41 c-195 111 -363 277 -408 403
-11 32 -14 34 -21 16z"/>
<path d="M45087 44838 c-75 -108 -118 -179 -179 -301 l-59 -118 74 -112 c89
-133 153 -258 195 -382 65 -189 62 -96 62 -1966 l0 -1699 83 -41 c110 -55 216
-125 405 -267 210 -158 270 -198 366 -242 95 -44 162 -60 254 -60 87 0 175 22
262 63 l70 33 18 -20 c43 -48 178 -235 256 -353 96 -147 180 -300 213 -388
l22 -60 0 356 1 356 -74 6 c-101 9 -216 47 -312 106 -45 27 -169 114 -275 194
-196 146 -340 240 -436 284 l-52 24 -4 1727 c-3 1582 -5 1733 -20 1795 -78
315 -240 587 -518 866 -99 100 -284 261 -300 261 -4 0 -27 -28 -52 -62z"/>
<path d="M39507 44517 c-64 -194 -117 -356 -117 -360 0 -4 54 -7 120 -7 l120
0 0 360 c0 198 -1 360 -3 360 -1 0 -55 -159 -120 -353z"/>
<path d="M38894 44331 c-6 -46 -22 -102 -36 -131 l-25 -50 216 1 c141 1 202 4
176 9 -143 30 -245 101 -301 213 l-20 37 -10 -79z"/>
<path d="M35530 43984 c-209 -140 -277 -194 -244 -194 9 0 145 75 224 124 154
95 321 240 273 235 -5 0 -118 -74 -253 -165z"/>
<path d="M39619 44077 c-31 -40 -75 -95 -98 -123 l-40 -51 25 -34 c38 -51 74
-124 105 -218 16 -47 29 -88 29 -93 0 -4 -16 -8 -35 -8 -38 0 -142 -36 -194
-68 l-34 -20 69 -35 c38 -19 143 -76 233 -126 90 -49 205 -108 255 -130 90
-39 252 -91 285 -91 34 0 29 -13 -23 -64 -89 -87 -141 -218 -134 -342 l3 -57
115 -39 c167 -55 300 -108 300 -119 0 -5 -79 -9 -186 -9 l-185 0 7 -22 c9 -31
69 -123 114 -178 32 -39 39 -56 49 -126 13 -91 48 -224 144 -554 64 -220 97
-357 97 -401 0 -18 5 -15 30 19 43 59 96 83 183 84 91 0 136 -11 327 -83 168
-62 247 -85 258 -75 13 14 -29 209 -94 432 -91 309 -143 515 -151 588 -6 55
-12 68 -65 134 -70 88 -122 194 -140 284 l-14 67 -59 -40 c-33 -22 -78 -49
-100 -61 l-40 -20 40 42 c22 23 65 57 96 76 l57 35 6 67 c4 37 16 92 26 122
l19 55 -32 34 c-18 18 -58 53 -89 76 l-57 42 162 8 c103 5 153 11 137 16 -14
4 -68 19 -120 34 -110 30 -250 95 -494 230 -96 52 -232 123 -303 157 -70 33
-130 62 -132 65 -3 2 34 43 81 91 74 75 408 482 408 497 0 3 -177 5 -392 5
l-393 -1 -56 -72z"/>
<path d="M37463 44095 c-33 -7 -74 -20 -89 -28 l-28 -15 40 -6 c166 -26 328
-32 415 -16 58 11 142 40 135 47 -9 9 -246 32 -326 32 -47 0 -113 -7 -147 -14z"/>
<path d="M35301 44051 c-16 -22 -21 -44 -20 -88 l1 -58 13 60 c7 33 18 72 24
88 14 35 8 34 -18 -2z"/>
<path d="M38483 43959 c-113 -20 -236 -119 -492 -396 l-132 -142 38 -25 c80
-52 226 -86 371 -86 83 0 84 0 140 43 138 105 269 180 338 193 18 3 40 18 53
34 l21 29 -26 73 c-75 209 -177 300 -311 277z"/>
<path d="M29380 43934 c-164 -14 -164 -16 -5 -35 83 -9 247 -29 365 -43 118
-14 291 -30 385 -37 l169 -11 96 -48 c447 -224 919 -315 1740 -335 553 -14
843 -38 1075 -90 60 -14 113 -25 117 -25 5 0 8 -306 8 -680 l0 -680 400 0 400
0 0 675 0 674 -37 10 c-248 67 -523 93 -1148 111 -198 6 -421 15 -495 20 -499
37 -887 133 -1263 314 -104 50 -124 56 -179 56 -87 0 -338 24 -629 60 -134 16
-315 36 -402 45 -160 15 -513 26 -597 19z"/>
<path d="M36719 43783 c32 -46 214 -220 206 -198 -18 46 -35 133 -35 178 l0
47 -96 0 -95 0 20 -27z"/>
<path d="M35890 43716 c-12 -34 -35 -82 -51 -108 l-29 -48 130 0 130 0 0 27
c0 20 -20 47 -79 108 l-80 81 -21 -60z"/>
<path d="M35053 43687 c-41 -71 -46 -86 -22 -72 12 8 73 135 67 141 -3 2 -23
-29 -45 -69z"/>
<path d="M36653 43552 l-283 -2 0 -38 c0 -20 3 -74 7 -119 l6 -83 248 0 c137
0 249 -4 249 -8 0 -5 -12 -19 -26 -33 -59 -54 -139 -195 -225 -393 -22 -50
-36 -92 -32 -94 4 -1 80 -45 168 -97 88 -53 215 -123 283 -157 l122 -61 26 24
c71 66 139 185 254 448 64 145 137 270 193 329 l31 32 -252 0 -252 0 0 28 c0
23 -6 30 -35 41 -50 18 -129 84 -167 139 l-33 47 -282 -3z"/>
<path d="M61099 36258 c0 -4011 -2 -7360 -5 -7443 -2 -82 -5 -1030 -6 -2105
-3 -2423 -22 -7124 -33 -8195 -3 -253 -7 -876 -10 -1385 -3 -509 -7 -1123 -10
-1365 -3 -242 -7 -732 -10 -1090 -6 -812 -14 -1570 -20 -2095 -3 -223 -10
-864 -15 -1425 -6 -561 -12 -1071 -13 -1133 l-2 -112 396 0 397 0 6 398 c19
1194 56 5120 76 8187 31 4650 49 12367 50 20368 l0 4687 -400 0 -400 0 -1
-7292z"/>
<path d="M42315 43159 c-212 -72 -428 -108 -670 -109 l-110 -1 35 -27 c69 -54
131 -116 186 -188 31 -41 61 -74 65 -74 5 0 82 56 172 124 132 101 273 198
453 313 26 16 27 17 -131 -38z"/>
<path d="M55224 43039 c-119 -11 -249 -45 -333 -86 -93 -46 -218 -161 -207
-190 18 -43 67 -247 86 -353 37 -212 51 -388 57 -720 l5 -325 92 -87 c114
-106 169 -185 286 -408 51 -96 120 -217 154 -268 l61 -94 40 7 c63 10 121 51
183 128 31 39 75 91 97 115 41 46 122 92 163 92 21 0 22 4 22 81 0 79 -1 82
-46 152 -25 40 -93 118 -150 175 l-104 102 0 153 c-1 343 -27 696 -70 922 -36
189 -130 502 -179 594 -13 23 -21 24 -157 10z"/>
<path d="M38657 42696 c-51 -19 -67 -34 -90 -86 -18 -38 -21 -72 -25 -222 l-4
-178 38 0 c48 0 166 17 217 31 l37 10 0 104 0 104 123 3 122 3 16 50 c9 28 19
70 23 95 l6 45 -98 28 c-82 22 -119 27 -213 27 -69 -1 -129 -6 -152 -14z"/>
<path d="M41635 42635 c-44 -25 -96 -62 -115 -81 l-35 -36 45 27 c25 15 74 48
110 73 112 77 110 82 -5 17z"/>
<path d="M53767 42533 c-17 -73 -37 -233 -36 -288 1 -49 25 51 44 184 21 149
17 207 -8 104z"/>
<path d="M43525 42405 c-85 -15 -158 -35 -153 -40 2 -2 58 -20 123 -40 66 -20
165 -54 221 -76 55 -21 103 -39 107 -39 4 0 6 46 5 103 l-3 102 -115 2 c-63 1
-146 -4 -185 -12z"/>
<path d="M67280 42120 l0 -130 -141 7 -141 6 7 -54 c20 -147 103 -347 155
-374 39 -20 256 -82 368 -105 116 -23 306 -46 459 -55 l112 -7 -87 88 c-103
104 -148 186 -186 335 -24 95 -46 268 -46 366 l0 53 -250 0 -250 0 0 -130z"/>
<path d="M66345 42090 c104 -104 135 -116 135 -51 0 37 -2 39 -47 56 -27 10
-77 33 -113 51 l-65 34 90 -90z"/>
<path d="M35280 41944 c0 -3 59 -213 131 -467 72 -254 153 -547 179 -652 123
-483 187 -908 191 -1266 0 -69 4 -132 9 -139 6 -9 19 -9 62 -1 105 22 167 69
403 306 121 121 236 229 257 239 42 23 42 -6 -3 271 -53 329 -122 605 -333
1345 l-104 365 -396 3 c-218 1 -396 0 -396 -4z"/>
<path d="M38743 41808 l-82 -83 80 -53 c45 -29 83 -51 85 -49 3 2 3 63 2 136
l-3 131 -82 -82z"/>
<path d="M38301 41366 c-12 -14 -52 -16 -292 -16 l-279 0 0 -120 0 -120 400 0
400 0 0 124 0 123 -87 7 c-49 4 -97 9 -109 12 -12 3 -26 -1 -33 -10z"/>
<path d="M39845 41255 c-90 -32 -150 -148 -162 -316 l-6 -89 -111 0 c-61 0
-128 -3 -148 -6 l-38 -7 0 -155 0 -155 51 51 c107 107 257 181 459 225 138 31
276 47 403 47 52 0 115 3 141 6 l46 7 0 66 c0 36 6 91 14 122 l13 57 -36 5
c-20 2 -110 32 -201 66 -244 92 -334 108 -425 76z"/>
<path d="M64740 39750 l0 -290 292 0 293 0 -290 290 c-159 160 -291 290 -292
290 -2 0 -3 -130 -3 -290z"/>
<path d="M37595 39892 c75 -73 123 -112 150 -122 31 -10 130 -15 436 -17 l396
-4 7 -102 c12 -200 53 -306 155 -407 80 -79 178 -130 483 -254 l208 -85 44 52
c24 29 67 88 94 131 l51 79 -37 27 c-121 88 -202 263 -202 438 0 27 -3 63 -6
79 l-6 30 -381 6 c-482 7 -452 -1 -603 148 l-110 109 -395 0 -394 0 110 -108z"/>
<path d="M41510 39983 c-172 -27 -434 -99 -426 -118 28 -74 126 -394 156 -510
98 -383 130 -684 130 -1247 0 -164 3 -298 8 -298 4 0 62 55 130 123 l122 122
0 968 0 967 -47 -1 c-27 -1 -59 -4 -73 -6z"/>
<path d="M64500 39445 c0 -3 54 -114 121 -246 66 -133 118 -243 115 -246 -3
-3 -161 47 -351 110 -298 100 -345 113 -333 94 58 -91 125 -210 159 -281 44
-95 78 -128 181 -176 124 -58 268 -80 526 -80 l152 0 0 28 c-1 95 -56 230
-173 424 -96 157 -143 255 -157 324 l-11 54 -115 0 c-63 0 -114 -2 -114 -5z"/>
<path d="M75751 39365 c-185 -217 -257 -389 -249 -590 5 -109 26 -176 89 -282
72 -119 248 -265 418 -347 l74 -35 112 117 c62 64 111 120 108 125 -2 4 -17 7
-32 7 -46 0 -164 45 -341 130 -148 71 -287 120 -342 120 -23 0 -24 51 -3 155
19 90 43 156 128 345 70 156 111 276 105 310 -2 17 -14 8 -67 -55z"/>
<path d="M75577 37858 c-6 -254 -18 -345 -57 -436 -26 -60 -93 -128 -146 -148
-37 -13 -35 -14 56 -8 252 15 446 64 767 196 l122 50 -77 51 c-96 64 -182 149
-213 213 -19 38 -24 65 -24 119 1 61 6 79 37 138 l36 67 -248 0 -247 0 -6
-242z"/>
<path d="M69222 34143 c-17 -81 -47 -142 -151 -301 -102 -159 -148 -246 -167
-317 -19 -69 -18 -70 19 -46 138 92 366 179 538 207 l106 17 12 64 c27 148 87
297 155 386 l36 47 -268 0 -268 0 -12 -57z"/>
<path d="M69831 34165 c24 -19 49 -35 55 -35 5 0 25 16 44 35 l34 35 -88 0
-89 0 44 -35z"/>
<path d="M68154 33981 c-232 -227 -251 -249 -442 -498 l-132 -172 0 -101 0
-101 -64 36 -65 36 -41 -30 c-22 -16 -64 -35 -93 -42 -28 -7 -66 -18 -82 -25
-26 -11 -123 -37 -217 -58 -25 -6 -28 -11 -28 -45 l0 -39 -174 6 c-201 6 -313
-6 -478 -49 -123 -32 -159 -56 -201 -134 -19 -35 -22 -55 -21 -165 0 -107 4
-138 28 -215 15 -49 30 -93 34 -96 4 -3 49 38 100 91 l92 98 -71 57 c-39 31
-67 60 -62 64 4 4 100 29 213 54 196 45 213 51 350 120 209 106 367 153 595
178 103 11 335 6 371 -8 12 -4 14 31 14 251 0 141 3 256 8 256 4 0 136 -74
295 -164 l287 -165 0 239 0 240 -24 -10 c-43 -16 -150 -72 -203 -106 l-53 -34
0 29 c0 31 28 119 55 172 10 19 57 95 105 169 123 190 121 186 118 284 l-3 83
-211 -206z"/>
<path d="M70540 34153 c-17 -21 -46 -69 -65 -108 l-34 -70 93 -10 94 -10 -57
-85 c-31 -46 -91 -120 -133 -163 l-77 -80 -10 -91 c-6 -50 -13 -162 -17 -249
l-7 -159 50 49 c74 72 145 116 321 199 87 41 189 90 227 110 178 94 333 229
438 384 l58 85 -102 7 c-290 20 -550 92 -677 188 -29 22 -56 40 -61 40 -5 0
-24 -17 -41 -37z m339 -290 c-1 -66 -3 -88 -8 -67 -14 58 -55 118 -96 141
l-40 23 73 0 72 0 -1 -97z"/>
<path d="M65440 34062 c-238 -221 -525 -432 -814 -598 -92 -53 -122 -75 -131
-99 -18 -43 -375 -1080 -375 -1088 0 -4 83 -7 185 -7 102 0 185 -3 185 -6 0
-3 -15 -24 -34 -46 -47 -55 -99 -157 -130 -256 -50 -161 -86 -431 -86 -647 l1
-110 56 107 c31 59 77 134 104 167 l47 59 -26 7 c-25 6 -24 8 31 38 32 17 82
57 112 89 98 105 196 342 211 509 4 38 9 69 13 69 3 0 23 -18 46 -40 l40 -39
309 897 c170 493 326 945 347 1005 21 59 37 107 36 106 -1 0 -58 -53 -127
-117z"/>
<path d="M71609 33921 c17 -16 38 -44 46 -63 l14 -33 1 63 0 62 -46 0 -46 0
31 -29z"/>
<path d="M67781 32771 c-135 -31 -240 -60 -234 -64 6 -4 16 -28 23 -54 7 -27
28 -91 48 -143 28 -76 35 -110 36 -170 0 -41 -2 -81 -4 -89 -12 -34 299 -119
466 -128 174 -9 273 26 314 113 35 72 18 210 -41 326 -11 21 -19 50 -19 65 0
68 -83 148 -184 179 -101 31 -144 27 -405 -35z"/>
<path d="M65585 32189 c-4 -30 -13 -80 -21 -113 -8 -32 -13 -60 -11 -62 2 -3
63 -3 136 -2 l131 3 -114 114 -114 113 -7 -53z"/>
<path d="M65813 31980 c-24 -11 -104 -40 -179 -66 -132 -46 -136 -48 -156 -88
-56 -111 -138 -205 -216 -249 l-43 -24 55 -23 55 -22 42 36 c48 40 169 105
262 141 35 13 204 62 375 110 279 76 512 150 605 190 28 13 -15 14 -363 14
-365 0 -398 -2 -437 -19z"/>
<path d="M69894 29736 c-45 -20 -100 -78 -130 -139 -15 -29 -48 -75 -74 -102
-25 -28 -64 -76 -84 -107 l-38 -57 12 -84 c16 -118 -5 -230 -57 -289 -13 -15
-12 -22 13 -68 34 -63 81 -105 152 -138 132 -60 298 -32 468 79 111 73 186
151 207 218 52 165 -23 413 -174 575 -106 114 -205 151 -295 112z"/>
<path d="M67333 29249 c-52 -26 -157 -121 -241 -219 l-64 -75 5 -62 c10 -105
45 -168 101 -178 65 -12 163 42 310 172 l88 77 -7 70 c-14 151 -57 236 -118
236 -18 0 -51 -9 -74 -21z"/>
<path d="M65281 27233 c-24 -49 -96 -180 -161 -293 -223 -388 -279 -528 -287
-710 -6 -126 11 -209 63 -313 35 -70 123 -195 164 -232 11 -10 20 -22 20 -27
0 -4 -144 -8 -321 -8 l-320 0 6 -22 c4 -13 25 -69 47 -126 36 -93 39 -109 33
-159 -9 -75 -43 -174 -120 -359 -36 -85 -65 -158 -65 -162 0 -5 53 -37 118
-72 131 -70 238 -138 266 -169 18 -20 18 -22 -7 -98 -65 -198 -36 -312 97
-380 72 -37 179 -52 359 -53 l157 0 -6 73 c-9 115 -25 208 -46 266 -34 91
-113 161 -183 161 -30 0 -31 14 -11 110 19 88 37 138 112 318 78 186 110 279
122 357 9 56 7 65 -24 142 -134 333 -204 683 -220 1101 l-7 182 131 0 132 0 0
280 c0 154 -1 280 -3 280 -1 0 -22 -39 -46 -87z"/>
<path d="M66431 24210 c-30 -11 -78 -34 -105 -51 -60 -36 -134 -99 -118 -99
15 0 15 -38 0 -95 -11 -40 -10 -49 9 -89 32 -65 78 -112 138 -142 195 -95 537
23 634 218 17 34 31 69 31 78 0 23 -149 118 -250 159 -74 30 -98 35 -185 38
-81 3 -110 0 -154 -17z"/>
<path d="M71430 23282 l0 -80 -97 -12 c-142 -17 -478 -107 -478 -126 0 -5 7
-33 15 -62 11 -40 18 -51 29 -47 189 74 437 92 675 50 49 -9 90 -14 92 -13 1
2 -6 27 -16 57 -26 72 -98 184 -165 254 l-55 58 0 -79z"/>
<path d="M71920 23010 c-25 -5 -73 -17 -107 -26 l-63 -16 130 -44 c165 -55
323 -124 525 -227 l160 -82 5 -680 5 -680 110 -7 c340 -22 554 -170 641 -443
60 -189 69 -466 32 -950 -21 -277 -22 -312 -25 -3535 -3 -3071 -4 -3256 -21
-3268 -30 -23 -480 -311 -737 -472 -1614 -1009 -3322 -1926 -5055 -2713 -2886
-1310 -5927 -2295 -9005 -2917 -2390 -483 -4733 -748 -7235 -820 -264 -7 -248
-8 160 -4 5386 54 10685 1143 15675 3224 2383 993 4713 2224 6897 3643 l118
76 3 3293 c3 3082 4 3306 21 3498 25 281 27 672 3 796 -43 232 -136 386 -292
483 -94 59 -305 111 -452 111 l-43 0 0 679 0 679 -212 106 c-298 147 -513 229
-733 276 -112 24 -423 36 -505 20z"/>
<path d="M68640 22770 c0 -163 -1 -170 -20 -170 -25 0 -25 1 1 -105 30 -128
48 -278 55 -472 l7 -173 395 0 395 0 -6 193 c-10 357 -72 615 -194 820 l-47
77 -293 0 -293 0 0 -170z"/>
<path d="M64328 20094 c28 -31 64 -83 82 -115 17 -32 36 -59 41 -59 20 0 101
63 187 145 l87 84 -223 1 -224 0 50 -56z"/>
<path d="M64737 20038 c-12 -193 -58 -353 -146 -499 l-38 -64 -6 -200 c-4
-110 -20 -324 -36 -475 -40 -366 -53 -577 -45 -721 l7 -119 133 0 132 0 7
-107 c22 -333 97 -464 277 -480 56 -6 58 -7 58 -34 0 -36 11 -36 52 -1 18 16
46 32 62 36 39 10 81 56 101 114 23 68 37 196 24 230 -30 76 -50 226 -56 402
-5 194 1 293 52 780 67 630 16 939 -195 1195 l-45 55 -166 0 -166 0 -6 -112z"/>
<path d="M62947 17948 c13 -286 79 -581 193 -849 l39 -94 1 50 0 51 98 -3
c117 -4 325 -28 407 -48 33 -7 61 -12 62 -11 2 1 -36 60 -83 132 -98 148 -177
286 -240 418 l-44 93 0 136 0 135 -37 6 c-21 3 -74 8 -118 12 -76 6 -200 25
-255 39 l-26 6 3 -73z"/>
<path d="M63981 17033 l0 -68 112 -53 112 -53 143 1 c78 0 142 -4 142 -8 0 -4
-25 -32 -55 -62 l-54 -54 72 -67 72 -66 -60 -13 c-33 -7 -97 -28 -142 -48
l-83 -35 0 -125 0 -125 98 -101 c231 -241 383 -470 399 -604 l6 -52 159 0 159
0 -58 48 c-104 87 -184 195 -322 432 -36 61 -95 149 -132 195 l-68 85 27 5
c131 28 190 53 398 170 177 100 254 135 337 155 l69 16 -68 63 c-92 84 -268
200 -384 254 -229 107 -550 177 -811 177 l-69 0 1 -67z"/>
<path d="M63240 16845 c0 -11 74 -193 98 -240 31 -63 83 -136 92 -130 4 2 10
27 13 54 9 74 29 106 140 219 l102 102 -223 0 c-122 0 -222 -2 -222 -5z"/>
<path d="M64091 16419 c-19 -11 -81 -44 -139 -73 -58 -29 -100 -56 -95 -59 11
-7 355 -29 360 -23 6 5 -76 176 -84 176 -4 0 -23 -9 -42 -21z"/>
<path d="M64855 14889 c-132 -13 -290 -37 -460 -70 -124 -24 -153 -33 -165
-51 -8 -12 -63 -85 -123 -161 -59 -77 -124 -168 -143 -204 -35 -62 -84 -196
-84 -230 0 -26 72 74 162 227 77 130 171 258 191 259 4 1 7 -63 7 -141 0 -174
11 -246 47 -315 16 -29 52 -98 81 -154 l54 -102 54 54 54 53 0 -122 0 -122
100 0 c96 0 100 1 90 19 -21 40 -50 188 -50 257 0 93 30 206 80 302 22 42 92
145 156 227 111 142 164 229 164 268 0 14 -9 17 -62 16 -35 -1 -103 -6 -153
-10z"/>
<path d="M63379 14552 c-40 -13 -51 -23 -88 -81 l-42 -66 87 -3 c48 -2 88 -1
91 1 2 3 3 40 1 84 l-3 79 -46 -14z"/>
<path d="M65235 13950 c-52 -53 -111 -101 -139 -115 l-50 -25 142 0 142 0 0
115 c0 63 -1 115 -3 115 -1 0 -43 -41 -92 -90z"/>
<path d="M64630 12624 c-95 -18 -180 -67 -180 -104 0 -9 9 -29 21 -44 l20 -26
289 0 289 0 20 26 c27 35 26 55 -3 83 -50 47 -119 64 -281 67 -82 1 -161 0
-175 -2z"/>
<path d="M63130 11794 l0 -56 83 7 c111 9 261 36 250 45 -9 9 -273 60 -308 60
-24 0 -25 -3 -25 -56z"/>
<path d="M64420 11826 c-124 -50 -310 -85 -455 -86 l-80 -1 145 -57 c336 -133
466 -243 524 -441 9 -30 16 -68 16 -85 l1 -31 49 53 c28 29 65 80 82 113 32
57 34 59 75 59 23 0 68 -10 100 -22 87 -32 152 -104 261 -288 87 -146 179
-276 189 -267 14 15 43 206 43 287 0 159 -41 276 -132 376 -91 99 -189 155
-444 252 -151 58 -238 100 -281 136 -17 14 -32 26 -34 25 -2 0 -29 -11 -59
-23z"/>
<path d="M63910 11291 c-67 -125 -185 -226 -322 -276 l-62 -22 55 -7 c107 -12
326 -26 419 -26 151 1 340 30 340 53 0 5 -21 46 -46 89 -90 153 -183 228 -300
243 l-52 7 -32 -61z"/>
</g>
</svg>
